<?xml version="1.0" encoding="UTF-8"?>
<!DOCTYPE svg PUBLIC "-//W3C//DTD SVG 1.1//EN" "http://www.w3.org/Graphics/SVG/1.1/DTD/svg11.dtd">
<!-- Creator: CorelDRAW 2018 (64 Bit Versão de avaliação) -->
<svg xmlns="http://www.w3.org/2000/svg" xml:space="preserve" width="10.085mm" height="10.085mm" version="1.1" style="shape-rendering:geometricPrecision; text-rendering:geometricPrecision; image-rendering:optimizeQuality; fill-rule:evenodd; clip-rule:evenodd"
viewBox="0 0 22.16 22.16"
 xmlns:xlink="http://www.w3.org/1999/xlink">
 <defs>
  <style type="text/css">
   <![CDATA[
    .fil0 {fill:#FF9830}
    .fil1 {fill:#FF9830;fill-rule:nonzero}
   ]]>
  </style>
 </defs>
 <g id="Camada_x0020_1">
  <metadata id="CorelCorpID_0Corel-Layer"/>
  <g id="_2362940380480">
   <path class="fil0" d="M12.85 13.99c0,-0.82 -0.13,-1.1 0.26,-1.69 0.95,-1.43 1.89,-2.27 1.85,-3.94 -0.05,-2.13 -1.76,-3.8 -3.91,-3.8 -2.12,0.01 -3.88,1.74 -3.85,3.87 0.02,1.35 0.49,1.95 1.09,2.76 0.84,1.14 0.96,1.01 1,2.59 0,0.06 0,0.13 0.01,0.19l3.55 0.01z"/>
   <path class="fil0" d="M10.89 17.59l0.39 0c0.29,-0.22 0.23,-0.04 0.42,-0.36 0.23,-0.37 -0.06,-0.16 0.37,-0.35 0.39,-0.16 0.59,-0.34 0.62,-0.87l-3.23 -0c0.02,0.53 0.22,0.71 0.62,0.87 0.46,0.19 0.15,0.02 0.4,0.39 0.17,0.25 0.16,0.13 0.4,0.31z"/>
  </g>
  <path class="fil1" d="M11.08 0c3.06,0 5.83,1.24 7.83,3.25 2,2.01 3.25,4.78 3.25,7.83 0,3.06 -1.24,5.83 -3.25,7.83 -2.01,2.01 -4.78,3.25 -7.83,3.25 -3.06,0 -5.83,-1.24 -7.83,-3.25 -2.01,-2 -3.25,-4.77 -3.25,-7.83 0,-3.06 1.24,-5.83 3.25,-7.83 2,-2 4.77,-3.25 7.83,-3.25zm6.88 4.2c-1.76,-1.76 -4.2,-2.85 -6.88,-2.85 -2.69,0 -5.12,1.09 -6.88,2.85 -1.76,1.76 -2.85,4.2 -2.85,6.88 0,2.69 1.09,5.12 2.85,6.88 1.76,1.76 4.2,2.85 6.88,2.85 2.69,0 5.12,-1.09 6.88,-2.85 1.76,-1.76 2.85,-4.2 2.85,-6.88 0,-2.69 -1.09,-5.12 -2.85,-6.88z"/>
 </g>
</svg>
