<?xml version="1.0" encoding="UTF-8"?>
<!DOCTYPE svg PUBLIC "-//W3C//DTD SVG 1.1//EN" "http://www.w3.org/Graphics/SVG/1.1/DTD/svg11.dtd">
<!-- Creator: CorelDRAW 2018 (64 Bit Versão de avaliação) -->
<svg xmlns="http://www.w3.org/2000/svg" xml:space="preserve" width="12.5791mm" height="15.1062mm" version="1.1" style="shape-rendering:geometricPrecision; text-rendering:geometricPrecision; image-rendering:optimizeQuality; fill-rule:evenodd; clip-rule:evenodd"
viewBox="0 0 34.29 41.18"
 xmlns:xlink="http://www.w3.org/1999/xlink">
 <defs>
  <style type="text/css">
   <![CDATA[
    .fil0 {fill:#FF9830}
   ]]>
  </style>
 </defs>
 <g id="Camada_x0020_1">
  <metadata id="CorelCorpID_0Corel-Layer"/>
  <g id="_1738713614688">
   <g>
    <path class="fil0" d="M21.63 32.03c0,-2.09 -0.33,-2.8 0.66,-4.28 2.4,-3.62 4.8,-5.76 4.69,-10 -0.14,-5.4 -4.47,-9.66 -9.93,-9.64 -5.39,0.02 -9.85,4.43 -9.77,9.83 0.05,3.42 1.24,4.94 2.77,7 2.23,3 2.45,2.54 2.56,7.07l9.02 0.02z"/>
    <path class="fil0" d="M16.65 41.18l0.98 0c0.74,-0.55 0.59,-0.1 1.08,-0.91 0.58,-0.95 -0.16,-0.42 0.94,-0.88 0.99,-0.41 1.5,-0.87 1.59,-2.2l-8.2 -0c0.06,1.34 0.56,1.79 1.58,2.21 1.18,0.48 0.39,0.06 1.01,0.99 0.43,0.64 0.41,0.33 1.01,0.79z"/>
    <path class="fil0" d="M13.94 33.59c-2.02,0 -2.05,2.04 0,2.04l6.41 0c2.03,0 1.97,-2.04 0,-2.04l-6.41 0z"/>
    <path class="fil0" d="M10.51 29.28c0.71,-1.45 -1.26,-2.64 -2.34,-1.37 -4.39,5.13 -0.49,5.18 0.36,4.21 0.34,-0.38 1.75,-2.38 1.97,-2.83z"/>
    <path class="fil0" d="M5.56 22.96c0.81,-1.26 -0.16,-2.66 -2.01,-2.06 -0.86,0.28 -2.77,0.68 -3.25,1.34 -0.82,1.13 0.11,2.5 1.94,1.94 0.65,-0.2 3.17,-0.98 3.32,-1.22z"/>
    <path class="fil0" d="M23.64 28.92c0.04,0.42 1.57,2.48 1.95,2.99 0.92,1.26 2.77,0.81 2.6,-0.76 -0.06,-0.59 -1.5,-2.49 -1.92,-3.03 -0.95,-1.26 -2.79,-0.79 -2.63,0.8z"/>
    <path class="fil0" d="M34.11 13.36c1.33,-3.25 -5.02,-1.28 -5.48,-0.1 -1.24,3.16 5,1.28 5.48,0.1z"/>
    <path class="fil0" d="M17.58 0l-0.88 0c-1.2,1 -0.91,1.19 -0.92,3.11 -0,1.36 -0.15,2.7 1.28,2.76 1.51,0.07 1.45,-1.22 1.45,-2.58 -0.01,-1.97 0.31,-2.26 -0.92,-3.3z"/>
    <path class="fil0" d="M33.42 24.24c1.31,-0.63 1.06,-2.12 -0.48,-2.62 -0.83,-0.27 -2.75,-1.07 -3.54,-0.86 -1.16,0.31 -1.44,2.12 0.41,2.71 0.95,0.3 2.66,1.09 3.61,0.77z"/>
    <path class="fil0" d="M6.7 3.52c-1.36,1.06 -0.22,2.05 0.49,3.05 0.6,0.84 1.44,2.56 2.88,1.66 1.3,-0.81 -0.03,-2.42 -0.53,-3.11 -0.56,-0.76 -1.5,-2.65 -2.85,-1.6z"/>
    <path class="fil0" d="M26.16 3.42c-0.5,0.3 -1.79,2.16 -2.12,2.67 -1.05,1.63 0.35,2.87 1.64,2.19 0.35,-0.19 1.8,-2.25 2.1,-2.67 1.12,-1.61 -0.38,-2.95 -1.62,-2.19z"/>
    <path class="fil0" d="M0.06 12.99c0.12,1.22 1.72,1.35 2.95,1.77 1.16,0.4 2.81,0.68 2.73,-1.04 -0.07,-1.47 -5.98,-3.67 -5.68,-0.73z"/>
   </g>
  </g>
 </g>
</svg>
