<?xml version="1.0" encoding="UTF-8"?>
<!DOCTYPE svg PUBLIC "-//W3C//DTD SVG 1.1//EN" "http://www.w3.org/Graphics/SVG/1.1/DTD/svg11.dtd">
<!-- Creator: CorelDRAW 2018 (64 Bit Versão de avaliação) -->
<svg xmlns="http://www.w3.org/2000/svg" xml:space="preserve" width="10.085mm" height="10.085mm" version="1.1" style="shape-rendering:geometricPrecision; text-rendering:geometricPrecision; image-rendering:optimizeQuality; fill-rule:evenodd; clip-rule:evenodd"
viewBox="0 0 22.16 22.16"
 xmlns:xlink="http://www.w3.org/1999/xlink">
 <defs>
  <style type="text/css">
   <![CDATA[
    .fil0 {fill:#8845C7}
    .fil1 {fill:#8845C7;fill-rule:nonzero}
   ]]>
  </style>
 </defs>
 <g id="Camada_x0020_1">
  <metadata id="CorelCorpID_0Corel-Layer"/>
  <g id="_2004288135600">
   <path class="fil0" d="M9.18 19.77c0.02,0.39 0.01,0.83 0.01,1.23 0,0.39 0.23,0.64 -0.14,0.74 4.46,-0.21 4.92,0.03 4.92,0.03 0,0 -0.07,-1.47 -0.07,-2.98 -0,-0.87 -0.2,-1.35 -0.61,-1.8 0.81,-0.21 1.53,-0.18 2.44,-0.72 1.55,-0.91 2.08,-2.64 1.91,-4.4 -0.09,-0.98 -0.49,-1.62 -0.93,-2.16 0.09,-0.52 0.2,-0.73 0.15,-1.34 -0.03,-0.38 -0.13,-0.93 -0.31,-1.19 -0.81,-0.09 -1.82,0.5 -2.34,0.83 -0.28,0.18 -0.23,0.14 -0.59,0.06 -1.21,-0.29 -2.31,-0.34 -3.54,-0.12 -0.86,0.15 -0.82,0.3 -1.22,0.04 -0.52,-0.34 -1.53,-0.88 -2.32,-0.8 -0.15,0.23 -0.28,0.81 -0.31,1.19 -0.05,0.61 0.07,0.85 0.15,1.34 -0.45,0.54 -0.85,1.21 -0.94,2.2 -0.08,0.96 0.1,1.98 0.43,2.73 0.33,0.76 0.85,1.25 1.52,1.64 0.89,0.52 1.61,0.5 2.42,0.7 -0.33,0.36 -0.47,0.67 -0.6,1.29 -1.21,0.42 -1.98,0.3 -2.62,-0.5 -0.3,-0.38 -0.39,-0.67 -0.81,-0.96 -0.29,-0.2 -0.92,-0.47 -1.27,-0.18 0.01,0.27 0.31,0.41 0.48,0.53 0.24,0.17 0.33,0.28 0.5,0.5 0.47,0.62 0.63,2.27 2.85,2.19 0.28,-0.01 0.61,-0.1 0.84,-0.09z"/>
   <path class="fil1" d="M11.08 0c3.06,0 5.83,1.24 7.83,3.25 2,2.01 3.25,4.78 3.25,7.83 0,3.06 -1.24,5.83 -3.25,7.83 -2.01,2.01 -4.78,3.25 -7.83,3.25 -3.06,0 -5.83,-1.24 -7.83,-3.25 -2.01,-2.01 -3.25,-4.78 -3.25,-7.83 0,-3.06 1.24,-5.83 3.25,-7.83 2,-2.01 4.78,-3.25 7.83,-3.25zm6.88 4.2c-1.76,-1.76 -4.2,-2.85 -6.88,-2.85 -2.69,0 -5.12,1.09 -6.88,2.85 -1.76,1.76 -2.85,4.2 -2.85,6.88 0,2.69 1.09,5.12 2.85,6.88 1.76,1.76 4.2,2.85 6.88,2.85 2.69,0 5.12,-1.09 6.88,-2.85 1.76,-1.76 2.85,-4.2 2.85,-6.88 0,-2.69 -1.09,-5.12 -2.85,-6.88z"/>
  </g>
 </g>
</svg>
