<?xml version="1.0" encoding="UTF-8"?>
<!DOCTYPE svg PUBLIC "-//W3C//DTD SVG 1.1//EN" "http://www.w3.org/Graphics/SVG/1.1/DTD/svg11.dtd">
<!-- Creator: CorelDRAW 2018 (64 Bit Versão de avaliação) -->
<svg xmlns="http://www.w3.org/2000/svg" xml:space="preserve" width="10.085mm" height="10.085mm" version="1.1" style="shape-rendering:geometricPrecision; text-rendering:geometricPrecision; image-rendering:optimizeQuality; fill-rule:evenodd; clip-rule:evenodd"
viewBox="0 0 22.16 22.16"
 xmlns:xlink="http://www.w3.org/1999/xlink">
 <defs>
  <style type="text/css">
   <![CDATA[
    .fil1 {fill:#8845C7}
    .fil0 {fill:#8845C7;fill-rule:nonzero}
   ]]>
  </style>
 </defs>
 <g id="Camada_x0020_1">
  <metadata id="CorelCorpID_0Corel-Layer"/>
  <g id="_2004365544640">
   <path class="fil0" d="M11.08 0c3.06,0 5.83,1.24 7.83,3.25 2,2.01 3.25,4.78 3.25,7.83 0,3.06 -1.24,5.83 -3.25,7.83 -2.01,2.01 -4.78,3.25 -7.83,3.25 -3.06,0 -5.83,-1.24 -7.83,-3.25 -2.01,-2 -3.25,-4.78 -3.25,-7.83 0,-3.06 1.24,-5.83 3.25,-7.83 2,-2 4.78,-3.25 7.83,-3.25zm6.88 4.2c-1.76,-1.76 -4.2,-2.85 -6.88,-2.85 -2.69,0 -5.12,1.09 -6.88,2.85 -1.76,1.76 -2.85,4.2 -2.85,6.88 0,2.69 1.09,5.12 2.85,6.88 1.76,1.76 4.2,2.85 6.88,2.85 2.69,0 5.12,-1.09 6.88,-2.85 1.76,-1.76 2.85,-4.2 2.85,-6.88 0,-2.69 -1.09,-5.12 -2.85,-6.88z"/>
   <g>
    <path class="fil1" d="M9.09 5.78c1.27,-0.06 4,-0.11 5.18,0.08 1.7,0.28 2.06,1.4 2.11,3.21 0.04,1.38 0.12,3.92 -0.08,5.21 -0.27,1.7 -1.41,2.06 -3.19,2.12 -1.38,0.04 -3.95,0.13 -5.23,-0.08 -1.69,-0.28 -2.05,-1.41 -2.1,-3.2 -0.04,-1.39 -0.13,-3.94 0.08,-5.23 0.28,-1.74 1.41,-2.01 3.23,-2.1zm-4.49 7.33c0.08,2.21 0.6,3.53 2.32,4.16 1.19,0.43 4.67,0.34 6.13,0.29 2.18,-0.07 3.57,-0.58 4.2,-2.3 0.45,-1.24 0.34,-4.67 0.3,-6.17 -0.06,-2.2 -0.61,-3.59 -2.32,-4.19 -1.24,-0.43 -4.68,-0.34 -6.18,-0.29 -2.19,0.07 -3.54,0.6 -4.17,2.34 -0.42,1.17 -0.34,4.72 -0.28,6.16z"/>
    <path class="fil1" d="M10.71 8.96c2.79,-0.52 3.56,3.76 0.75,4.25 -2.79,0.49 -3.58,-3.73 -0.75,-4.25zm3.68 2.5c0.23,-1.96 -1.23,-3.48 -2.92,-3.68 -1.95,-0.24 -3.49,1.21 -3.7,2.89 -0.24,1.96 1.2,3.53 2.9,3.72 1.97,0.23 3.51,-1.21 3.71,-2.93z"/>
    <path class="fil1" d="M14.43 6.86c-1.04,0.19 -0.75,1.72 0.27,1.52 0.98,-0.18 0.71,-1.71 -0.27,-1.52z"/>
   </g>
  </g>
 </g>
</svg>
