<?xml version="1.0" encoding="UTF-8"?>
<!DOCTYPE svg PUBLIC "-//W3C//DTD SVG 1.1//EN" "http://www.w3.org/Graphics/SVG/1.1/DTD/svg11.dtd">
<!-- Creator: CorelDRAW 2018 (64 Bit Versão de avaliação) -->
<svg xmlns="http://www.w3.org/2000/svg" xml:space="preserve" width="10.085mm" height="10.085mm" version="1.1" style="shape-rendering:geometricPrecision; text-rendering:geometricPrecision; image-rendering:optimizeQuality; fill-rule:evenodd; clip-rule:evenodd"
viewBox="0 0 22.16 22.16"
 xmlns:xlink="http://www.w3.org/1999/xlink">
 <defs>
  <style type="text/css">
   <![CDATA[
    .fil0 {fill:#8845C7}
    .fil1 {fill:#8845C7;fill-rule:nonzero}
   ]]>
  </style>
 </defs>
 <g id="Camada_x0020_1">
  <metadata id="CorelCorpID_0Corel-Layer"/>
  <g id="_2004363289488">
   <g>
    <g>
     <path class="fil0" d="M9.34 17.53l2.52 0.01c-0.03,-1.36 -0.01,-2.7 -0.01,-4.03 0,-1.31 0.18,-2.43 1.56,-2.44 1.38,-0.01 1.51,1.15 1.51,2.44 0.01,1.34 0.02,2.71 -0.01,4.04l2.6 -0.01c-0.06,-1.8 0.26,-5.96 -0.46,-7.31 -0.77,-1.45 -2.97,-1.57 -4.27,-1.03 -0.59,0.24 -0.69,0.57 -1.06,0.87l-0 -1.14 -2.36 0.01 -0.04 8.6z"/>
     <path class="fil0" d="M7.61 17.52l0.03 -8.58 -2.98 -0.01 -0.02 7.27c0,0.29 -0.12,1.2 0.09,1.32 0.09,0.05 2.59,0.03 2.88,0.01z"/>
     <path class="fil0" d="M5.63 4.73c-1.95,0.79 -0.74,3.5 1.07,2.8 1.81,-0.69 0.77,-3.54 -1.07,-2.8z"/>
    </g>
   </g>
   <path class="fil1" d="M11.08 0c3.06,0 5.83,1.24 7.83,3.25 2,2 3.25,4.78 3.25,7.83 0,3.06 -1.24,5.83 -3.25,7.83 -2.01,2 -4.78,3.25 -7.83,3.25 -3.06,0 -5.83,-1.24 -7.83,-3.25 -2.01,-2.01 -3.25,-4.78 -3.25,-7.83 0,-3.06 1.24,-5.83 3.25,-7.83 2,-2.01 4.78,-3.25 7.83,-3.25zm6.88 4.2c-1.76,-1.76 -4.2,-2.85 -6.88,-2.85 -2.69,0 -5.12,1.09 -6.88,2.85 -1.76,1.76 -2.85,4.2 -2.85,6.88 0,2.69 1.09,5.12 2.85,6.88 1.76,1.76 4.2,2.85 6.88,2.85 2.69,0 5.12,-1.09 6.88,-2.85 1.76,-1.76 2.85,-4.2 2.85,-6.88 0,-2.69 -1.09,-5.12 -2.85,-6.88z"/>
  </g>
 </g>
</svg>
