<?xml version="1.0" encoding="UTF-8"?>
<!DOCTYPE svg PUBLIC "-//W3C//DTD SVG 1.1//EN" "http://www.w3.org/Graphics/SVG/1.1/DTD/svg11.dtd">
<!-- Creator: CorelDRAW 2018 (64 Bit Versão de avaliação) -->
<svg xmlns="http://www.w3.org/2000/svg" xml:space="preserve" width="462.767mm" height="247.259mm" version="1.1" style="shape-rendering:geometricPrecision; text-rendering:geometricPrecision; image-rendering:optimizeQuality; fill-rule:evenodd; clip-rule:evenodd"
viewBox="0 0 43545.96 23266.86"
 xmlns:xlink="http://www.w3.org/1999/xlink">
 <defs>
  <style type="text/css">
   <![CDATA[
    .fil0 {fill:white}
   ]]>
  </style>
 </defs>
 <g id="Conteúdo_x0020_do_x0020_PowerClip">
  <metadata id="CorelCorpID_0Corel-Layer"/>
  <ellipse class="fil0" cx="5761.56" cy="8887.05" rx="97.04" ry="31.13"/>
  <ellipse class="fil0" cx="1828.26" cy="7429.53" rx="97.04" ry="31.13"/>
  <circle class="fil0" cx="4041.14" cy="8803.44" r="24.7"/>
  <ellipse class="fil0" cx="4741.29" cy="8436.03" rx="36.65" ry="11.76"/>
  <circle class="fil0" transform="matrix(0.0178356 -0.0122848 0.00394128 0.00572212 4180.76 8459.55)" r="1692.32"/>
  <circle class="fil0" transform="matrix(0.00420096 -0.00289353 0.000928319 0.00134777 4389.38 8665.35)" r="1692.32"/>
  <ellipse class="fil0" cx="4398.1" cy="7239.78" rx="36.65" ry="11.76"/>
  <circle class="fil0" cx="6138.98" cy="7396.23" r="24.7"/>
  <circle class="fil0" cx="2392.22" cy="7524.75" r="24.7"/>
  <ellipse class="fil0" cx="2035.25" cy="7684.3" rx="36.65" ry="11.76"/>
  <circle class="fil0" transform="matrix(-0.0178356 -0.0122848 -0.00394128 0.00572212 2252.59 7180.86)" r="1692.32"/>
  <circle class="fil0" transform="matrix(-0.00420096 -0.00289353 -0.000928319 0.00134777 2043.98 7386.66)" r="1692.32"/>
  <circle class="fil0" cx="170.54" cy="10200.42" r="24.7"/>
  <circle class="fil0" transform="matrix(-0.0178356 -0.0122848 -0.00394128 0.00572212 30.9157 9856.52)" r="1692.32"/>
  <ellipse class="fil0" cx="5204.72" cy="983.15" rx="36.65" ry="11.76"/>
  <ellipse class="fil0" cx="1961.95" cy="1064.02" rx="36.65" ry="11.76"/>
  <circle class="fil0" transform="matrix(-0.00420096 -0.00289353 -0.000928319 0.00134777 1970.68 766.388)" r="1692.32"/>
  <ellipse class="fil0" cx="3766.18" cy="12021.93" rx="36.65" ry="11.76"/>
  <circle class="fil0" transform="matrix(0.0178356 -0.0122848 0.00394128 0.00572212 3205.65 12045.5)" r="1692.32"/>
  <ellipse class="fil0" cx="2499.08" cy="8624.3" rx="36.65" ry="11.76"/>
  <circle class="fil0" transform="matrix(0.0178356 -0.0122848 0.00394128 0.00572212 1938.55 8647.81)" r="1692.32"/>
  <ellipse class="fil0" cx="31681.87" cy="9153.22" rx="97.04" ry="31.13"/>
  <ellipse class="fil0" cx="35615.17" cy="7695.7" rx="97.04" ry="31.13"/>
  <circle class="fil0" cx="33402.29" cy="9069.61" r="24.7"/>
  <ellipse class="fil0" cx="32702.14" cy="8702.2" rx="36.65" ry="11.76"/>
  <circle class="fil0" transform="matrix(-0.0178356 -0.0122848 -0.00394128 0.00572212 33262.7 8725.71)" r="1692.32"/>
  <circle class="fil0" transform="matrix(-0.00420096 -0.00289353 -0.000928319 0.00134777 33054.1 8931.52)" r="1692.32"/>
  <ellipse class="fil0" cx="33045.33" cy="7505.95" rx="36.65" ry="11.76"/>
  <circle class="fil0" cx="31304.45" cy="7662.4" r="24.7"/>
  <circle class="fil0" cx="35051.22" cy="7790.92" r="24.7"/>
  <ellipse class="fil0" cx="35408.18" cy="7950.47" rx="36.65" ry="11.76"/>
  <circle class="fil0" transform="matrix(0.0178356 -0.0122848 0.00394128 0.00572212 35190.8 7447.03)" r="1692.32"/>
  <circle class="fil0" transform="matrix(0.00420096 -0.00289353 0.000928319 0.00134777 35399.5 7652.83)" r="1692.32"/>
  <circle class="fil0" cx="37272.89" cy="10466.59" r="24.7"/>
  <ellipse class="fil0" cx="37629.85" cy="10626.13" rx="36.65" ry="11.76"/>
  <circle class="fil0" transform="matrix(0.0178356 -0.0122848 0.00394128 0.00572212 37412.5 10122.7)" r="1692.32"/>
  <circle class="fil0" transform="matrix(0.00420096 -0.00289353 0.000928319 0.00134777 37621.1 10328.5)" r="1692.32"/>
  <ellipse class="fil0" cx="32238.71" cy="1249.31" rx="36.65" ry="11.76"/>
  <ellipse class="fil0" cx="35481.48" cy="1330.19" rx="36.65" ry="11.76"/>
  <circle class="fil0" transform="matrix(0.00420096 -0.00289353 0.000928319 0.00134777 35472.8 1032.56)" r="1692.32"/>
  <ellipse class="fil0" cx="33677.25" cy="12288.1" rx="36.65" ry="11.76"/>
  <circle class="fil0" transform="matrix(-0.0178356 -0.0122848 -0.00394128 0.00572212 34237.8 12311.6)" r="1692.32"/>
  <ellipse class="fil0" cx="34944.35" cy="8890.47" rx="36.65" ry="11.76"/>
  <circle class="fil0" transform="matrix(-0.0178356 -0.0122848 -0.00394128 0.00572212 35504.9 8913.98)" r="1692.32"/>
  <ellipse class="fil0" cx="41800.84" cy="2516.41" rx="97.04" ry="31.13"/>
  <circle class="fil0" cx="43521.26" cy="2600.02" r="24.7"/>
  <ellipse class="fil0" cx="42821.1" cy="2967.43" rx="36.65" ry="11.76"/>
  <circle class="fil0" transform="matrix(-0.0178356 0.0122848 -0.00394128 -0.00572212 43381.6 2943.91)" r="1692.32"/>
  <circle class="fil0" transform="matrix(-0.00420096 0.00289353 -0.000928319 -0.00134777 43173 2738.11)" r="1692.32"/>
  <ellipse class="fil0" cx="43164.29" cy="4163.68" rx="36.65" ry="11.76"/>
  <circle class="fil0" cx="41423.42" cy="4007.23" r="24.7"/>
  <ellipse class="fil0" cx="4986.63" cy="18368.27" rx="97.04" ry="31.13"/>
  <ellipse class="fil0" cx="8919.92" cy="16910.75" rx="97.04" ry="31.13"/>
  <circle class="fil0" cx="6707.05" cy="18284.66" r="24.7"/>
  <ellipse class="fil0" cx="6006.89" cy="17917.25" rx="36.65" ry="11.76"/>
  <circle class="fil0" transform="matrix(-0.0178356 -0.0122848 -0.00394128 0.00572212 6567.42 17940.8)" r="1692.32"/>
  <circle class="fil0" transform="matrix(-0.00420096 -0.00289353 -0.000928319 0.00134777 6358.81 18146.6)" r="1692.32"/>
  <ellipse class="fil0" cx="6350.09" cy="16721.01" rx="36.65" ry="11.76"/>
  <circle class="fil0" cx="4609.21" cy="16877.46" r="24.7"/>
  <circle class="fil0" cx="8355.97" cy="17005.97" r="24.7"/>
  <ellipse class="fil0" cx="8712.94" cy="17165.52" rx="36.65" ry="11.76"/>
  <circle class="fil0" transform="matrix(0.0178356 -0.0122848 0.00394128 0.00572212 8495.6 16662.1)" r="1692.32"/>
  <circle class="fil0" transform="matrix(0.00420096 -0.00289353 0.000928319 0.00134777 8704.21 16867.9)" r="1692.32"/>
  <circle class="fil0" cx="10577.65" cy="19681.64" r="24.7"/>
  <ellipse class="fil0" cx="10934.61" cy="19841.19" rx="36.65" ry="11.76"/>
  <circle class="fil0" transform="matrix(0.0178356 -0.0122848 0.00394128 0.00572212 10717.3 19337.7)" r="1692.32"/>
  <circle class="fil0" transform="matrix(0.00420096 -0.00289353 0.000928319 0.00134777 10925.9 19543.6)" r="1692.32"/>
  <ellipse class="fil0" cx="5543.46" cy="10464.37" rx="36.65" ry="11.76"/>
  <ellipse class="fil0" cx="8786.24" cy="10545.25" rx="36.65" ry="11.76"/>
  <circle class="fil0" transform="matrix(0.00420096 -0.00289353 0.000928319 0.00134777 8777.51 10247.6)" r="1692.32"/>
  <ellipse class="fil0" cx="6982.01" cy="21503.16" rx="36.65" ry="11.76"/>
  <circle class="fil0" transform="matrix(-0.0178356 -0.0122848 -0.00394128 0.00572212 7542.54 21526.7)" r="1692.32"/>
  <ellipse class="fil0" cx="8249.11" cy="18105.52" rx="36.65" ry="11.76"/>
  <circle class="fil0" transform="matrix(-0.0178356 -0.0122848 -0.00394128 0.00572212 8809.64 18129)" r="1692.32"/>
  <circle class="fil0" cx="8064.64" cy="7514.31" r="24.7"/>
  <ellipse class="fil0" cx="8421.61" cy="7673.86" rx="36.65" ry="11.76"/>
  <circle class="fil0" transform="matrix(0.0178356 -0.0122848 0.00394128 0.00572212 8204.27 7170.42)" r="1692.32"/>
  <circle class="fil0" transform="matrix(0.00420096 -0.00289353 0.000928319 0.00134777 8412.88 7376.23)" r="1692.32"/>
  <ellipse class="fil0" cx="23862.53" cy="14040.76" rx="97.04" ry="31.13"/>
  <ellipse class="fil0" cx="27795.82" cy="12583.24" rx="97.04" ry="31.13"/>
  <circle class="fil0" cx="25582.94" cy="13957.15" r="24.7"/>
  <ellipse class="fil0" cx="24882.79" cy="13589.74" rx="36.65" ry="11.76"/>
  <circle class="fil0" transform="matrix(-0.0178356 -0.0122848 -0.00394128 0.00572212 25443.3 13613.3)" r="1692.32"/>
  <circle class="fil0" transform="matrix(-0.00420096 -0.00289353 -0.000928319 0.00134777 25234.7 13819.1)" r="1692.32"/>
  <ellipse class="fil0" cx="25225.98" cy="12393.49" rx="36.65" ry="11.76"/>
  <circle class="fil0" cx="23485.1" cy="12549.94" r="24.7"/>
  <circle class="fil0" cx="27231.87" cy="12678.46" r="24.7"/>
  <ellipse class="fil0" cx="27588.83" cy="12838.01" rx="36.65" ry="11.76"/>
  <circle class="fil0" transform="matrix(0.0178356 -0.0122848 0.00394128 0.00572212 27371.5 12334.6)" r="1692.32"/>
  <circle class="fil0" transform="matrix(0.00420096 -0.00289353 0.000928319 0.00134777 27580.1 12540.4)" r="1692.32"/>
  <circle class="fil0" cx="29453.54" cy="15354.13" r="24.7"/>
  <ellipse class="fil0" cx="29810.51" cy="15513.67" rx="36.65" ry="11.76"/>
  <circle class="fil0" transform="matrix(0.0178356 -0.0122848 0.00394128 0.00572212 29593.2 15010.2)" r="1692.32"/>
  <circle class="fil0" transform="matrix(0.00420096 -0.00289353 0.000928319 0.00134777 29801.8 15216)" r="1692.32"/>
  <ellipse class="fil0" cx="25857.9" cy="17175.64" rx="36.65" ry="11.76"/>
  <circle class="fil0" transform="matrix(-0.0178356 -0.0122848 -0.00394128 0.00572212 26418.4 17199.2)" r="1692.32"/>
  <ellipse class="fil0" cx="27125" cy="13778.01" rx="36.65" ry="11.76"/>
  <circle class="fil0" transform="matrix(-0.0178356 -0.0122848 -0.00394128 0.00572212 27685.5 13801.5)" r="1692.32"/>
  <ellipse class="fil0" cx="30175.98" cy="19957.09" rx="97.04" ry="31.13"/>
  <ellipse class="fil0" cx="34109.27" cy="18499.57" rx="97.04" ry="31.13"/>
  <circle class="fil0" cx="31896.39" cy="19873.48" r="24.7"/>
  <ellipse class="fil0" cx="31196.24" cy="19506.07" rx="36.65" ry="11.76"/>
  <circle class="fil0" transform="matrix(-0.0178356 -0.0122848 -0.00394128 0.00572212 31756.8 19529.6)" r="1692.32"/>
  <circle class="fil0" transform="matrix(-0.00420096 -0.00289353 -0.000928319 0.00134777 31548.2 19735.4)" r="1692.32"/>
  <ellipse class="fil0" cx="31539.43" cy="18309.82" rx="36.65" ry="11.76"/>
  <circle class="fil0" cx="29798.55" cy="18466.27" r="24.7"/>
  <circle class="fil0" cx="33545.32" cy="18594.79" r="24.7"/>
  <ellipse class="fil0" cx="33902.28" cy="18754.34" rx="36.65" ry="11.76"/>
  <circle class="fil0" transform="matrix(0.0178356 -0.0122848 0.00394128 0.00572212 33684.9 18250.9)" r="1692.32"/>
  <circle class="fil0" transform="matrix(0.00420096 -0.00289353 0.000928319 0.00134777 33893.6 18456.7)" r="1692.32"/>
  <circle class="fil0" cx="35767" cy="21270.46" r="24.7"/>
  <ellipse class="fil0" cx="36123.96" cy="21430.01" rx="36.65" ry="11.76"/>
  <circle class="fil0" transform="matrix(0.0178356 -0.0122848 0.00394128 0.00572212 35906.6 20926.6)" r="1692.32"/>
  <circle class="fil0" transform="matrix(0.00420096 -0.00289353 0.000928319 0.00134777 36115.2 21132.4)" r="1692.32"/>
  <ellipse class="fil0" cx="32171.36" cy="23091.97" rx="36.65" ry="11.76"/>
  <circle class="fil0" transform="matrix(-0.0178356 -0.0122848 -0.00394128 0.00572212 32731.9 23115.5)" r="1692.32"/>
  <ellipse class="fil0" cx="33438.46" cy="19694.34" rx="36.65" ry="11.76"/>
  <circle class="fil0" transform="matrix(-0.0178356 -0.0122848 -0.00394128 0.00572212 33999 19717.9)" r="1692.32"/>
  <ellipse class="fil0" cx="22794.8" cy="23235.72" rx="97.04" ry="31.13"/>
  <ellipse class="fil0" cx="20224.96" cy="23045.98" rx="36.65" ry="11.76"/>
  <circle class="fil0" cx="18484.08" cy="23202.43" r="24.7"/>
  <circle class="fil0" transform="matrix(0.0178356 -0.0122848 0.00394128 0.00572212 22370.5 22987.1)" r="1692.32"/>
  <circle class="fil0" transform="matrix(0.00420096 -0.00289353 0.000928319 0.00134777 22579.1 23192.9)" r="1692.32"/>
  <ellipse class="fil0" cx="18742.43" cy="994.09" rx="97.04" ry="31.13"/>
  <circle class="fil0" cx="20462.84" cy="910.48" r="24.7"/>
  <ellipse class="fil0" cx="19762.69" cy="543.07" rx="36.65" ry="11.76"/>
  <circle class="fil0" transform="matrix(-0.0178356 -0.0122848 -0.00394128 0.00572212 20323.2 566.586)" r="1692.32"/>
  <circle class="fil0" transform="matrix(-0.00420096 -0.00289353 -0.000928319 0.00134777 20114.6 772.393)" r="1692.32"/>
  <circle class="fil0" cx="24333.45" cy="2307.46" r="24.7"/>
  <ellipse class="fil0" cx="24690.41" cy="2467.01" rx="36.65" ry="11.76"/>
  <circle class="fil0" transform="matrix(0.0178356 -0.0122848 0.00394128 0.00572212 24473.1 1963.57)" r="1692.32"/>
  <circle class="fil0" transform="matrix(0.00420096 -0.00289353 0.000928319 0.00134777 24681.7 2169.37)" r="1692.32"/>
  <ellipse class="fil0" cx="20737.81" cy="4128.98" rx="36.65" ry="11.76"/>
  <circle class="fil0" transform="matrix(-0.0178356 -0.0122848 -0.00394128 0.00572212 21298.3 4152.49)" r="1692.32"/>
  <ellipse class="fil0" cx="22004.91" cy="731.34" rx="36.65" ry="11.76"/>
  <circle class="fil0" transform="matrix(-0.0178356 -0.0122848 -0.00394128 0.00572212 22565.4 754.855)" r="1692.32"/>
  <ellipse class="fil0" cx="34801.95" cy="1729.14" rx="97.04" ry="31.13"/>
  <ellipse class="fil0" cx="38735.25" cy="271.62" rx="97.04" ry="31.13"/>
  <circle class="fil0" cx="36522.37" cy="1645.53" r="24.7"/>
  <ellipse class="fil0" cx="35822.22" cy="1278.12" rx="36.65" ry="11.76"/>
  <circle class="fil0" transform="matrix(-0.0178356 -0.0122848 -0.00394128 0.00572212 36382.7 1301.63)" r="1692.32"/>
  <circle class="fil0" transform="matrix(-0.00420096 -0.00289353 -0.000928319 0.00134777 36174.1 1507.44)" r="1692.32"/>
  <ellipse class="fil0" cx="36165.41" cy="81.87" rx="36.65" ry="11.76"/>
  <circle class="fil0" cx="34424.53" cy="238.32" r="24.7"/>
  <circle class="fil0" cx="38171.29" cy="366.84" r="24.7"/>
  <ellipse class="fil0" cx="38528.26" cy="526.39" rx="36.65" ry="11.76"/>
  <circle class="fil0" transform="matrix(0.0178356 -0.0122848 0.00394128 0.00572212 38310.9 22.9459)" r="1692.32"/>
  <circle class="fil0" transform="matrix(0.00420096 -0.00289353 0.000928319 0.00134777 38519.5 228.752)" r="1692.32"/>
  <circle class="fil0" cx="40392.97" cy="3042.51" r="24.7"/>
  <ellipse class="fil0" cx="40749.93" cy="3202.05" rx="36.65" ry="11.76"/>
  <circle class="fil0" transform="matrix(0.0178356 -0.0122848 0.00394128 0.00572212 40532.6 2698.61)" r="1692.32"/>
  <circle class="fil0" transform="matrix(0.00420096 -0.00289353 0.000928319 0.00134777 40741.2 2904.42)" r="1692.32"/>
  <ellipse class="fil0" cx="36797.33" cy="4864.02" rx="36.65" ry="11.76"/>
  <circle class="fil0" transform="matrix(-0.0178356 -0.0122848 -0.00394128 0.00572212 37357.9 4887.54)" r="1692.32"/>
  <ellipse class="fil0" cx="38064.43" cy="1466.39" rx="36.65" ry="11.76"/>
  <circle class="fil0" transform="matrix(-0.0178356 -0.0122848 -0.00394128 0.00572212 38625 1489.9)" r="1692.32"/>
  <ellipse class="fil0" cx="34245.59" cy="3929.94" rx="97.04" ry="31.13"/>
  <ellipse class="fil0" cx="38178.88" cy="2472.42" rx="97.04" ry="31.13"/>
  <circle class="fil0" cx="35966" cy="3846.33" r="24.7"/>
  <ellipse class="fil0" cx="35265.85" cy="3478.92" rx="36.65" ry="11.76"/>
  <circle class="fil0" transform="matrix(-0.0178356 -0.0122848 -0.00394128 0.00572212 35826.4 3502.44)" r="1692.32"/>
  <circle class="fil0" transform="matrix(-0.00420096 -0.00289353 -0.000928319 0.00134777 35617.8 3708.24)" r="1692.32"/>
  <ellipse class="fil0" cx="35609.04" cy="2282.67" rx="36.65" ry="11.76"/>
  <circle class="fil0" cx="33868.17" cy="2439.12" r="24.7"/>
  <circle class="fil0" cx="37614.93" cy="2567.64" r="24.7"/>
  <ellipse class="fil0" cx="37971.89" cy="2727.19" rx="36.65" ry="11.76"/>
  <circle class="fil0" transform="matrix(0.0178356 -0.0122848 0.00394128 0.00572212 37754.6 2223.75)" r="1692.32"/>
  <circle class="fil0" transform="matrix(0.00420096 -0.00289353 0.000928319 0.00134777 37963.2 2429.56)" r="1692.32"/>
  <circle class="fil0" cx="39836.61" cy="5243.31" r="24.7"/>
  <ellipse class="fil0" cx="40193.57" cy="5402.86" rx="36.65" ry="11.76"/>
  <circle class="fil0" transform="matrix(0.0178356 -0.0122848 0.00394128 0.00572212 39976.2 4899.42)" r="1692.32"/>
  <circle class="fil0" transform="matrix(0.00420096 -0.00289353 0.000928319 0.00134777 40184.8 5105.22)" r="1692.32"/>
  <ellipse class="fil0" cx="36240.97" cy="7064.83" rx="36.65" ry="11.76"/>
  <circle class="fil0" transform="matrix(-0.0178356 -0.0122848 -0.00394128 0.00572212 36801.5 7088.34)" r="1692.32"/>
  <ellipse class="fil0" cx="37508.07" cy="3667.19" rx="36.65" ry="11.76"/>
  <circle class="fil0" transform="matrix(-0.0178356 -0.0122848 -0.00394128 0.00572212 38068.6 3690.71)" r="1692.32"/>
  <ellipse class="fil0" cx="18219.2" cy="10186.11" rx="36.65" ry="11.76"/>
  <circle class="fil0" transform="matrix(0.00420096 -0.00289353 0.000928319 0.00134777 18210.5 9888.48)" r="1692.32"/>
  <ellipse class="fil0" cx="17539.67" cy="10585.06" rx="97.04" ry="31.13"/>
  <circle class="fil0" cx="19260.09" cy="10501.45" r="24.7"/>
  <ellipse class="fil0" cx="18559.93" cy="10134.04" rx="36.65" ry="11.76"/>
  <circle class="fil0" transform="matrix(-0.0178356 -0.0122848 -0.00394128 0.00572212 19120.5 10157.6)" r="1692.32"/>
  <circle class="fil0" transform="matrix(-0.00420096 -0.00289353 -0.000928319 0.00134777 18911.9 10363.4)" r="1692.32"/>
  <ellipse class="fil0" cx="18903.13" cy="8937.79" rx="36.65" ry="11.76"/>
  <circle class="fil0" cx="17162.25" cy="9094.24" r="24.7"/>
  <circle class="fil0" cx="20909.01" cy="9222.76" r="24.7"/>
  <ellipse class="fil0" cx="21265.98" cy="9382.31" rx="36.65" ry="11.76"/>
  <circle class="fil0" transform="matrix(0.0178356 -0.0122848 0.00394128 0.00572212 21048.6 8878.87)" r="1692.32"/>
  <circle class="fil0" transform="matrix(0.00420096 -0.00289353 0.000928319 0.00134777 21257.2 9084.67)" r="1692.32"/>
  <ellipse class="fil0" cx="20802.15" cy="10322.31" rx="36.65" ry="11.76"/>
  <circle class="fil0" transform="matrix(-0.0178356 -0.0122848 -0.00394128 0.00572212 21362.7 10345.8)" r="1692.32"/>
  <ellipse class="fil0" cx="20916.6" cy="11328.34" rx="97.04" ry="31.13"/>
  <ellipse class="fil0" cx="18003.57" cy="12334.84" rx="36.65" ry="11.76"/>
  <circle class="fil0" transform="matrix(-0.0178356 -0.0122848 -0.00394128 0.00572212 18564.1 12358.4)" r="1692.32"/>
  <circle class="fil0" transform="matrix(-0.00420096 -0.00289353 -0.000928319 0.00134777 18355.5 12564.2)" r="1692.32"/>
  <ellipse class="fil0" cx="18346.76" cy="11138.59" rx="36.65" ry="11.76"/>
  <circle class="fil0" cx="16605.88" cy="11295.04" r="24.7"/>
  <circle class="fil0" cx="20352.65" cy="11423.56" r="24.7"/>
  <ellipse class="fil0" cx="20709.61" cy="11583.11" rx="36.65" ry="11.76"/>
  <circle class="fil0" transform="matrix(0.0178356 -0.0122848 0.00394128 0.00572212 20492.3 11079.7)" r="1692.32"/>
  <circle class="fil0" transform="matrix(0.00420096 -0.00289353 0.000928319 0.00134777 20700.9 11285.5)" r="1692.32"/>
  <ellipse class="fil0" cx="20245.79" cy="12523.11" rx="36.65" ry="11.76"/>
  <circle class="fil0" transform="matrix(-0.0178356 -0.0122848 -0.00394128 0.00572212 20806.3 12546.6)" r="1692.32"/>
 </g>
</svg>
