<?xml version="1.0" encoding="UTF-8"?>
<!DOCTYPE svg PUBLIC "-//W3C//DTD SVG 1.1//EN" "http://www.w3.org/Graphics/SVG/1.1/DTD/svg11.dtd">
<!-- Creator: CorelDRAW 2018 (64 Bit Versão de avaliação) -->
<svg xmlns="http://www.w3.org/2000/svg" xml:space="preserve" width="362.092mm" height="234.631mm" version="1.1" style="shape-rendering:geometricPrecision; text-rendering:geometricPrecision; image-rendering:optimizeQuality; fill-rule:evenodd; clip-rule:evenodd"
viewBox="0 0 36209.2 23463.1"
 xmlns:xlink="http://www.w3.org/1999/xlink">
 <defs>
  <style type="text/css">
   <![CDATA[
    .fil0 {fill:gray}
   ]]>
  </style>
 </defs>
 <g id="Conteúdo_x0020_do_x0020_PowerClip">
  <metadata id="CorelCorpID_0Corel-Layer"/>
  <ellipse class="fil0" cx="15159.27" cy="10556.95" rx="81.62" ry="26.19"/>
  <circle class="fil0" transform="matrix(0.00880394 -0.00606397 0.00194548 0.00282453 16756.4 15104.2)" r="1798.44"/>
  <ellipse class="fil0" cx="12699" cy="10716.81" rx="81.62" ry="26.19"/>
  <circle class="fil0" transform="matrix(0.00880394 -0.00606397 0.00194548 0.00282453 12679.6 10053.9)" r="1798.44"/>
  <circle class="fil0" cx="14201.28" cy="9067.74" r="20.77"/>
  <ellipse class="fil0" cx="13901.03" cy="8933.55" rx="30.83" ry="9.89"/>
  <circle class="fil0" transform="matrix(-0.00332508 0.00229025 -0.000734771 -0.00106677 13908.4 9183.9)" r="1798.44"/>
  <ellipse class="fil0" cx="13099.24" cy="6303.31" rx="30.83" ry="9.89"/>
  <ellipse class="fil0" cx="18003.41" cy="7104.08" rx="30.83" ry="9.89"/>
  <ellipse class="fil0" cx="16815.53" cy="5506.38" rx="30.83" ry="9.89"/>
  <ellipse class="fil0" cx="13550.7" cy="10511.47" rx="30.83" ry="9.89"/>
  <ellipse class="fil0" cx="15627.64" cy="3908.66" rx="30.83" ry="9.89"/>
  <ellipse class="fil0" cx="13839.37" cy="10068.23" rx="30.83" ry="9.89"/>
  <ellipse class="fil0" cx="15338.97" cy="4351.9" rx="30.83" ry="9.89"/>
  <ellipse class="fil0" cx="18355.27" cy="3976.68" rx="30.83" ry="9.89"/>
  <circle class="fil0" transform="matrix(0.00332508 -0.00229025 0.000734771 0.00106677 17707.4 7296.98)" r="1798.44"/>
  <circle class="fil0" transform="matrix(-0.00332508 0.00229025 -0.000734771 -0.00106677 13846.7 10318.6)" r="1798.44"/>
  <circle class="fil0" transform="matrix(0.00332508 -0.00229025 0.000734771 0.00106677 15331.6 4101.55)" r="1798.44"/>
  <circle class="fil0" transform="matrix(0.00332508 -0.00229025 0.000734771 0.00106677 18347.9 3726.34)" r="1798.44"/>
  <circle class="fil0" cx="16606.38" cy="10486.62" r="20.77"/>
  <ellipse class="fil0" cx="16017.46" cy="10177.57" rx="30.83" ry="9.89"/>
  <circle class="fil0" transform="matrix(-0.014117 -0.0097235 -0.00311955 0.0045291 16488.9 10197.4)" r="1798.44"/>
  <circle class="fil0" transform="matrix(-0.00332508 -0.00229025 -0.000734771 0.00106677 16313.4 10370.5)" r="1798.44"/>
  <circle class="fil0" cx="16606.38" cy="9037.16" r="20.77"/>
  <ellipse class="fil0" cx="16017.46" cy="8728.12" rx="30.83" ry="9.89"/>
  <ellipse class="fil0" cx="16306.13" cy="9171.37" rx="30.83" ry="9.89"/>
  <circle class="fil0" transform="matrix(-0.014117 -0.0097235 -0.00311955 0.0045291 16488.9 8747.91)" r="1798.44"/>
  <circle class="fil0" transform="matrix(-0.00332508 -0.00229025 -0.000734771 0.00106677 16313.4 8921.02)" r="1798.44"/>
  <circle class="fil0" cx="14841.81" cy="9302.96" r="20.77"/>
  <ellipse class="fil0" cx="14252.88" cy="8993.92" rx="30.83" ry="9.89"/>
  <circle class="fil0" transform="matrix(-0.014117 -0.0097235 -0.00311955 0.0045291 14724.4 9013.7)" r="1798.44"/>
  <circle class="fil0" transform="matrix(-0.00332508 -0.00229025 -0.000734771 0.00106677 14548.9 9186.81)" r="1798.44"/>
  <circle class="fil0" cx="19031.76" cy="649.22" r="20.77"/>
  <ellipse class="fil0" cx="19332.01" cy="783.43" rx="30.83" ry="9.89"/>
  <circle class="fil0" transform="matrix(0.014117 -0.0097235 0.00311955 0.0045291 19149.2 359.956)" r="1798.44"/>
  <circle class="fil0" transform="matrix(0.00332508 -0.00229025 0.000734771 0.00106677 19324.7 533.068)" r="1798.44"/>
  <ellipse class="fil0" cx="20162.35" cy="11795.88" rx="30.83" ry="9.89"/>
  <circle class="fil0" transform="matrix(0.00332508 -0.00229025 0.000734771 0.00106677 20155.1 11545.5)" r="1798.44"/>
  <ellipse class="fil0" cx="31175.29" cy="17248.16" rx="81.62" ry="26.19"/>
  <ellipse class="fil0" cx="35254.04" cy="13967.71" rx="81.62" ry="26.19"/>
  <circle class="fil0" transform="matrix(0.00880394 0.00606397 0.00194548 -0.00282453 32772.5 12700.9)" r="1798.44"/>
  <ellipse class="fil0" cx="34483.73" cy="18474.15" rx="81.62" ry="26.19"/>
  <ellipse class="fil0" cx="28715.01" cy="17088.31" rx="81.62" ry="26.19"/>
  <circle class="fil0" transform="matrix(0.00880394 0.00606397 0.00194548 -0.00282453 28695.6 17751.2)" r="1798.44"/>
  <circle class="fil0" cx="30217.3" cy="18737.37" r="20.77"/>
  <ellipse class="fil0" cx="29917.03" cy="18871.58" rx="30.83" ry="9.89"/>
  <circle class="fil0" transform="matrix(-0.00332508 -0.00229025 -0.000734771 0.00106677 29924.4 18621.3)" r="1798.44"/>
  <ellipse class="fil0" cx="29115.24" cy="21501.82" rx="30.83" ry="9.89"/>
  <ellipse class="fil0" cx="34019.42" cy="20701.03" rx="30.83" ry="9.89"/>
  <ellipse class="fil0" cx="32831.55" cy="22298.74" rx="30.83" ry="9.89"/>
  <ellipse class="fil0" cx="29566.7" cy="17293.64" rx="30.83" ry="9.89"/>
  <ellipse class="fil0" cx="33730.76" cy="20257.78" rx="30.83" ry="9.89"/>
  <ellipse class="fil0" cx="29855.37" cy="17736.89" rx="30.83" ry="9.89"/>
  <ellipse class="fil0" cx="31354.99" cy="23453.21" rx="30.83" ry="9.89"/>
  <circle class="fil0" transform="matrix(0.00332508 0.00229025 0.000734771 -0.00106677 33723.5 20508.1)" r="1798.44"/>
  <circle class="fil0" transform="matrix(-0.00332508 -0.00229025 -0.000734771 0.00106677 29862.8 17486.6)" r="1798.44"/>
  <circle class="fil0" cx="32622.4" cy="17318.49" r="20.77"/>
  <ellipse class="fil0" cx="32033.46" cy="17627.54" rx="30.83" ry="9.89"/>
  <circle class="fil0" transform="matrix(-0.014117 0.0097235 -0.00311955 -0.0045291 32505 17607.7)" r="1798.44"/>
  <circle class="fil0" transform="matrix(-0.00332508 0.00229025 -0.000734771 -0.00106677 32329.5 17434.6)" r="1798.44"/>
  <circle class="fil0" cx="32622.4" cy="18767.95" r="20.77"/>
  <ellipse class="fil0" cx="32033.46" cy="19077" rx="30.83" ry="9.89"/>
  <ellipse class="fil0" cx="32322.15" cy="18633.75" rx="30.83" ry="9.89"/>
  <circle class="fil0" transform="matrix(-0.014117 0.0097235 -0.00311955 -0.0045291 32505 19057.2)" r="1798.44"/>
  <circle class="fil0" transform="matrix(-0.00332508 0.00229025 -0.000734771 -0.00106677 32329.5 18884.1)" r="1798.44"/>
  <circle class="fil0" cx="30857.82" cy="18502.16" r="20.77"/>
  <ellipse class="fil0" cx="30268.9" cy="18811.19" rx="30.83" ry="9.89"/>
  <circle class="fil0" transform="matrix(-0.014117 0.0097235 -0.00311955 -0.0045291 30740.3 18791.4)" r="1798.44"/>
  <circle class="fil0" transform="matrix(-0.00332508 0.00229025 -0.000734771 -0.00106677 30564.9 18618.3)" r="1798.44"/>
  <circle class="fil0" cx="27885.78" cy="21575.64" r="20.77"/>
  <circle class="fil0" cx="34009.37" cy="18394.06" r="20.77"/>
  <ellipse class="fil0" cx="28186.04" cy="21441.43" rx="30.83" ry="9.89"/>
  <ellipse class="fil0" cx="34309.63" cy="18259.85" rx="30.83" ry="9.89"/>
  <circle class="fil0" transform="matrix(0.014117 0.0097235 0.00311955 -0.0045291 28003.2 21864.9)" r="1798.44"/>
  <circle class="fil0" transform="matrix(0.014117 0.0097235 0.00311955 -0.0045291 34126.8 18683.4)" r="1798.44"/>
  <circle class="fil0" transform="matrix(0.00332508 0.00229025 0.000734771 -0.00106677 28178.7 21691.7)" r="1798.44"/>
  <circle class="fil0" transform="matrix(0.00332508 0.00229025 0.000734771 -0.00106677 34302.2 18510.3)" r="1798.44"/>
  <circle class="fil0" cx="35878.12" cy="16143.44" r="20.77"/>
  <ellipse class="fil0" cx="36178.37" cy="16009.24" rx="30.83" ry="9.89"/>
  <circle class="fil0" transform="matrix(0.014117 0.0097235 0.00311955 -0.0045291 35995.5 16432.8)" r="1798.44"/>
  <circle class="fil0" transform="matrix(0.00332508 0.00229025 0.000734771 -0.00106677 36171 16259.6)" r="1798.44"/>
  <ellipse class="fil0" cx="33513.86" cy="3665.33" rx="81.62" ry="26.19"/>
  <circle class="fil0" transform="matrix(0.00880394 0.00606397 0.00194548 -0.00282453 31032.3 2398.59)" r="1798.44"/>
  <ellipse class="fil0" cx="32743.56" cy="8171.79" rx="81.62" ry="26.19"/>
  <ellipse class="fil0" cx="27824.93" cy="314.47" rx="81.62" ry="26.19"/>
  <circle class="fil0" transform="matrix(0.00880394 0.00606397 0.00194548 -0.00282453 26955.4 7448.81)" r="1798.44"/>
  <ellipse class="fil0" cx="27375.07" cy="11199.45" rx="30.83" ry="9.89"/>
  <ellipse class="fil0" cx="32279.24" cy="10398.66" rx="30.83" ry="9.89"/>
  <ellipse class="fil0" cx="31091.37" cy="11996.38" rx="30.83" ry="9.89"/>
  <ellipse class="fil0" cx="29903.48" cy="13594.1" rx="30.83" ry="9.89"/>
  <ellipse class="fil0" cx="31990.57" cy="9955.42" rx="30.83" ry="9.89"/>
  <ellipse class="fil0" cx="29614.81" cy="13150.85" rx="30.83" ry="9.89"/>
  <ellipse class="fil0" cx="32631.1" cy="13526.06" rx="30.83" ry="9.89"/>
  <circle class="fil0" transform="matrix(0.00332508 0.00229025 0.000734771 -0.00106677 31983.3 10205.8)" r="1798.44"/>
  <circle class="fil0" transform="matrix(0.00332508 0.00229025 0.000734771 -0.00106677 29607.5 13401.1)" r="1798.44"/>
  <circle class="fil0" transform="matrix(0.00332508 0.00229025 0.000734771 -0.00106677 32623.8 13776.4)" r="1798.44"/>
  <circle class="fil0" cx="26145.6" cy="11273.27" r="20.77"/>
  <circle class="fil0" cx="32269.19" cy="8091.69" r="20.77"/>
  <ellipse class="fil0" cx="26445.87" cy="11139.07" rx="30.83" ry="9.89"/>
  <ellipse class="fil0" cx="32569.45" cy="7957.49" rx="30.83" ry="9.89"/>
  <circle class="fil0" transform="matrix(0.014117 0.0097235 0.00311955 -0.0045291 26263 11562.5)" r="1798.44"/>
  <circle class="fil0" transform="matrix(0.014117 0.0097235 0.00311955 -0.0045291 32386.6 8380.95)" r="1798.44"/>
  <circle class="fil0" transform="matrix(0.00332508 0.00229025 0.000734771 -0.00106677 26438.5 11389.4)" r="1798.44"/>
  <circle class="fil0" transform="matrix(0.00332508 0.00229025 0.000734771 -0.00106677 32562.2 8207.84)" r="1798.44"/>
  <circle class="fil0" cx="34137.94" cy="5841.08" r="20.77"/>
  <ellipse class="fil0" cx="34438.19" cy="5706.87" rx="30.83" ry="9.89"/>
  <circle class="fil0" transform="matrix(0.014117 0.0097235 0.00311955 -0.0045291 34255.3 6130.34)" r="1798.44"/>
  <circle class="fil0" transform="matrix(0.00332508 0.00229025 0.000734771 -0.00106677 34430.8 5957.23)" r="1798.44"/>
  <ellipse class="fil0" cx="21049.93" cy="15153.98" rx="81.62" ry="26.19"/>
  <circle class="fil0" transform="matrix(-0.00880394 0.00606397 -0.00194548 -0.00282453 19452.8 10606.8)" r="1798.44"/>
  <ellipse class="fil0" cx="23510.2" cy="14994.12" rx="81.62" ry="26.19"/>
  <circle class="fil0" transform="matrix(-0.00880394 0.00606397 -0.00194548 -0.00282453 23529.7 15657)" r="1798.44"/>
  <circle class="fil0" cx="22007.92" cy="16643.18" r="20.77"/>
  <ellipse class="fil0" cx="22308.17" cy="16777.39" rx="30.83" ry="9.89"/>
  <circle class="fil0" transform="matrix(0.00332508 -0.00229025 0.000734771 0.00106677 22300.8 16527)" r="1798.44"/>
  <ellipse class="fil0" cx="23109.98" cy="19407.63" rx="30.83" ry="9.89"/>
  <ellipse class="fil0" cx="18205.79" cy="18606.84" rx="30.83" ry="9.89"/>
  <ellipse class="fil0" cx="19393.67" cy="20204.56" rx="30.83" ry="9.89"/>
  <ellipse class="fil0" cx="22658.5" cy="15199.45" rx="30.83" ry="9.89"/>
  <ellipse class="fil0" cx="20581.56" cy="21802.26" rx="30.83" ry="9.89"/>
  <ellipse class="fil0" cx="22369.83" cy="15642.7" rx="30.83" ry="9.89"/>
  <ellipse class="fil0" cx="20870.23" cy="21359.02" rx="30.83" ry="9.89"/>
  <ellipse class="fil0" cx="17853.93" cy="21734.24" rx="30.83" ry="9.89"/>
  <circle class="fil0" transform="matrix(-0.00332508 0.00229025 -0.000734771 -0.00106677 18501.8 18413.9)" r="1798.44"/>
  <circle class="fil0" transform="matrix(0.00332508 -0.00229025 0.000734771 0.00106677 22362.5 15392.3)" r="1798.44"/>
  <circle class="fil0" transform="matrix(-0.00332508 0.00229025 -0.000734771 -0.00106677 20877.6 21609.3)" r="1798.44"/>
  <circle class="fil0" transform="matrix(-0.00332508 0.00229025 -0.000734771 -0.00106677 17861.3 21984.6)" r="1798.44"/>
  <circle class="fil0" cx="19602.82" cy="15224.31" r="20.77"/>
  <ellipse class="fil0" cx="20191.74" cy="15533.35" rx="30.83" ry="9.89"/>
  <circle class="fil0" transform="matrix(0.014117 0.0097235 0.00311955 -0.0045291 19720.3 15513.6)" r="1798.44"/>
  <circle class="fil0" transform="matrix(0.00332508 0.00229025 0.000734771 -0.00106677 19895.8 15340.5)" r="1798.44"/>
  <circle class="fil0" cx="19602.82" cy="16673.76" r="20.77"/>
  <ellipse class="fil0" cx="20191.74" cy="16982.81" rx="30.83" ry="9.89"/>
  <ellipse class="fil0" cx="19903.07" cy="16539.56" rx="30.83" ry="9.89"/>
  <circle class="fil0" transform="matrix(0.014117 0.0097235 0.00311955 -0.0045291 19720.3 16963.1)" r="1798.44"/>
  <circle class="fil0" transform="matrix(0.00332508 0.00229025 0.000734771 -0.00106677 19895.8 16789.9)" r="1798.44"/>
  <circle class="fil0" cx="21367.4" cy="16407.96" r="20.77"/>
  <ellipse class="fil0" cx="21956.32" cy="16717.01" rx="30.83" ry="9.89"/>
  <circle class="fil0" transform="matrix(0.014117 0.0097235 0.00311955 -0.0045291 21484.8 16697.3)" r="1798.44"/>
  <circle class="fil0" transform="matrix(0.00332508 0.00229025 0.000734771 -0.00106677 21660.3 16524.1)" r="1798.44"/>
  <circle class="fil0" cx="24339.43" cy="19481.45" r="20.77"/>
  <ellipse class="fil0" cx="24039.17" cy="19347.25" rx="30.83" ry="9.89"/>
  <circle class="fil0" transform="matrix(-0.014117 0.0097235 -0.00311955 -0.0045291 24221.9 19770.7)" r="1798.44"/>
  <circle class="fil0" transform="matrix(-0.00332508 0.00229025 -0.000734771 -0.00106677 24046.5 19597.6)" r="1798.44"/>
  <ellipse class="fil0" cx="16046.85" cy="13915.05" rx="30.83" ry="9.89"/>
  <circle class="fil0" transform="matrix(-0.00332508 0.00229025 -0.000734771 -0.00106677 16054.2 14165.4)" r="1798.44"/>
  <ellipse class="fil0" cx="5033.91" cy="8462.76" rx="81.62" ry="26.19"/>
  <ellipse class="fil0" cx="955.16" cy="11743.23" rx="81.62" ry="26.19"/>
  <circle class="fil0" transform="matrix(-0.00880394 -0.00606397 -0.00194548 0.00282453 3436.8 13009.9)" r="1798.44"/>
  <ellipse class="fil0" cx="1725.47" cy="7236.77" rx="81.62" ry="26.19"/>
  <ellipse class="fil0" cx="7494.19" cy="8622.61" rx="81.62" ry="26.19"/>
  <circle class="fil0" transform="matrix(-0.00880394 -0.00606397 -0.00194548 0.00282453 20461 1130.29)" r="1798.44"/>
  <circle class="fil0" cx="18939.27" cy="144.09" r="20.77"/>
  <ellipse class="fil0" cx="19239.52" cy="9.89" rx="30.83" ry="9.89"/>
  <circle class="fil0" transform="matrix(0.00332508 0.00229025 0.000734771 -0.00106677 19232.1 260.24)" r="1798.44"/>
  <ellipse class="fil0" cx="7093.96" cy="4209.12" rx="30.83" ry="9.89"/>
  <ellipse class="fil0" cx="20657.58" cy="6646.23" rx="30.83" ry="9.89"/>
  <ellipse class="fil0" cx="21845.47" cy="5048.52" rx="30.83" ry="9.89"/>
  <ellipse class="fil0" cx="19589.85" cy="1587.82" rx="30.83" ry="9.89"/>
  <ellipse class="fil0" cx="20946.26" cy="7089.48" rx="30.83" ry="9.89"/>
  <ellipse class="fil0" cx="19301.18" cy="1144.57" rx="30.83" ry="9.89"/>
  <ellipse class="fil0" cx="23322.03" cy="3894.05" rx="30.83" ry="9.89"/>
  <circle class="fil0" transform="matrix(-0.00332508 -0.00229025 -0.000734771 0.00106677 20953.6 6839.12)" r="1798.44"/>
  <circle class="fil0" transform="matrix(0.00332508 0.00229025 0.000734771 -0.00106677 19293.9 1394.92)" r="1798.44"/>
  <circle class="fil0" cx="3586.8" cy="8392.43" r="20.77"/>
  <ellipse class="fil0" cx="4175.74" cy="8083.39" rx="30.83" ry="9.89"/>
  <circle class="fil0" transform="matrix(0.014117 -0.0097235 0.00311955 0.0045291 3704.25 8103.17)" r="1798.44"/>
  <circle class="fil0" transform="matrix(0.00332508 -0.00229025 0.000734771 0.00106677 3879.72 8276.29)" r="1798.44"/>
  <circle class="fil0" cx="22054.62" cy="8579.31" r="20.77"/>
  <ellipse class="fil0" cx="22643.54" cy="8270.26" rx="30.83" ry="9.89"/>
  <ellipse class="fil0" cx="3887.07" cy="7077.18" rx="30.83" ry="9.89"/>
  <circle class="fil0" transform="matrix(0.014117 -0.0097235 0.00311955 0.0045291 22172.1 8290.04)" r="1798.44"/>
  <circle class="fil0" transform="matrix(0.00332508 -0.00229025 0.000734771 0.00106677 22347.6 8463.15)" r="1798.44"/>
  <circle class="fil0" cx="5351.38" cy="7208.78" r="20.77"/>
  <ellipse class="fil0" cx="18887.67" cy="70.26" rx="30.83" ry="9.89"/>
  <circle class="fil0" transform="matrix(0.014117 -0.0097235 0.00311955 0.0045291 23936.6 8555.85)" r="1798.44"/>
  <circle class="fil0" transform="matrix(0.00332508 -0.00229025 0.000734771 0.00106677 18591.6 263.157)" r="1798.44"/>
  <circle class="fil0" cx="8323.41" cy="4135.29" r="20.77"/>
  <circle class="fil0" cx="2199.83" cy="7316.88" r="20.77"/>
  <ellipse class="fil0" cx="8023.16" cy="4269.49" rx="30.83" ry="9.89"/>
  <ellipse class="fil0" cx="1899.57" cy="7451.07" rx="30.83" ry="9.89"/>
  <circle class="fil0" transform="matrix(-0.014117 -0.0097235 -0.00311955 0.0045291 8205.97 3846.02)" r="1798.44"/>
  <circle class="fil0" transform="matrix(-0.014117 -0.0097235 -0.00311955 0.0045291 2082.39 7027.61)" r="1798.44"/>
  <circle class="fil0" transform="matrix(-0.00332508 -0.00229025 -0.000734771 0.00106677 8030.49 4019.13)" r="1798.44"/>
  <circle class="fil0" transform="matrix(-0.00332508 -0.00229025 -0.000734771 0.00106677 1906.91 7200.72)" r="1798.44"/>
  <circle class="fil0" cx="331.09" cy="9567.49" r="20.77"/>
  <ellipse class="fil0" cx="30.83" cy="9701.69" rx="30.83" ry="9.89"/>
  <circle class="fil0" transform="matrix(-0.014117 -0.0097235 -0.00311955 0.0045291 213.644 9278.22)" r="1798.44"/>
  <circle class="fil0" transform="matrix(-0.00332508 -0.00229025 -0.000734771 0.00106677 38.1717 9451.33)" r="1798.44"/>
  <ellipse class="fil0" cx="2695.34" cy="22045.59" rx="81.62" ry="26.19"/>
  <circle class="fil0" transform="matrix(-0.00880394 -0.00606397 -0.00194548 0.00282453 5176.99 23312.4)" r="1798.44"/>
  <ellipse class="fil0" cx="3465.64" cy="17539.15" rx="81.62" ry="26.19"/>
  <ellipse class="fil0" cx="9234.37" cy="18924.99" rx="81.62" ry="26.19"/>
  <circle class="fil0" transform="matrix(-0.00880394 -0.00606397 -0.00194548 0.00282453 9253.8 18262.1)" r="1798.44"/>
  <ellipse class="fil0" cx="8834.14" cy="14511.47" rx="30.83" ry="9.89"/>
  <ellipse class="fil0" cx="3929.96" cy="15312.26" rx="30.83" ry="9.89"/>
  <ellipse class="fil0" cx="5117.83" cy="13714.56" rx="30.83" ry="9.89"/>
  <ellipse class="fil0" cx="6305.72" cy="12116.84" rx="30.83" ry="9.89"/>
  <ellipse class="fil0" cx="4218.63" cy="15755.51" rx="30.83" ry="9.89"/>
  <ellipse class="fil0" cx="6594.39" cy="12560.08" rx="30.83" ry="9.89"/>
  <ellipse class="fil0" cx="3578.09" cy="12184.86" rx="30.83" ry="9.89"/>
  <circle class="fil0" transform="matrix(-0.00332508 -0.00229025 -0.000734771 0.00106677 4225.96 15505.1)" r="1798.44"/>
  <circle class="fil0" transform="matrix(-0.00332508 -0.00229025 -0.000734771 0.00106677 6601.74 12309.7)" r="1798.44"/>
  <circle class="fil0" transform="matrix(-0.00332508 -0.00229025 -0.000734771 0.00106677 3585.44 11934.5)" r="1798.44"/>
  <circle class="fil0" cx="10063.6" cy="14437.65" r="20.77"/>
  <circle class="fil0" cx="3940" cy="17619.23" r="20.77"/>
  <ellipse class="fil0" cx="9763.33" cy="14571.85" rx="30.83" ry="9.89"/>
  <ellipse class="fil0" cx="3639.75" cy="17753.45" rx="30.83" ry="9.89"/>
  <circle class="fil0" transform="matrix(-0.014117 -0.0097235 -0.00311955 0.0045291 9946.15 14148.4)" r="1798.44"/>
  <circle class="fil0" transform="matrix(-0.014117 -0.0097235 -0.00311955 0.0045291 3822.56 17330)" r="1798.44"/>
  <circle class="fil0" transform="matrix(-0.00332508 -0.00229025 -0.000734771 0.00106677 9770.68 14321.5)" r="1798.44"/>
  <circle class="fil0" transform="matrix(-0.00332508 -0.00229025 -0.000734771 0.00106677 3647.1 17503.1)" r="1798.44"/>
  <circle class="fil0" cx="2071.26" cy="19869.85" r="20.77"/>
  <ellipse class="fil0" cx="1771.01" cy="20004.05" rx="30.83" ry="9.89"/>
  <circle class="fil0" transform="matrix(-0.014117 -0.0097235 -0.00311955 0.0045291 1953.82 19580.6)" r="1798.44"/>
  <circle class="fil0" transform="matrix(-0.00332508 -0.00229025 -0.000734771 0.00106677 1778.36 19753.7)" r="1798.44"/>
  <ellipse class="fil0" cx="4565.54" cy="1814.48" rx="30.83" ry="9.89"/>
  <ellipse class="fil0" cx="1837.92" cy="1882.51" rx="30.83" ry="9.89"/>
  <circle class="fil0" transform="matrix(-0.00332508 -0.00229025 -0.000734771 0.00106677 23329.4 3643.69)" r="1798.44"/>
  <circle class="fil0" transform="matrix(-0.00332508 -0.00229025 -0.000734771 0.00106677 1845.25 1632.15)" r="1798.44"/>
 </g>
</svg>
