<?xml version="1.0" encoding="UTF-8"?>
<!DOCTYPE svg PUBLIC "-//W3C//DTD SVG 1.1//EN" "http://www.w3.org/Graphics/SVG/1.1/DTD/svg11.dtd">
<!-- Creator: CorelDRAW 2018 (64 Bit Versão de avaliação) -->
<svg xmlns="http://www.w3.org/2000/svg" xml:space="preserve" width="362.092mm" height="234.631mm" version="1.1" style="shape-rendering:geometricPrecision; text-rendering:geometricPrecision; image-rendering:optimizeQuality; fill-rule:evenodd; clip-rule:evenodd"
viewBox="0 0 27858.99 18052.27"
 xmlns:xlink="http://www.w3.org/1999/xlink">
 <defs>
  <style type="text/css">
   <![CDATA[
    .fil0 {fill:#E6E6E6}
   ]]>
  </style>
 </defs>
 <g id="Conteúdo_x0020_do_x0020_PowerClip">
  <metadata id="CorelCorpID_0Corel-Layer"/>
  <ellipse class="fil0" cx="11663.39" cy="8122.41" rx="62.8" ry="20.15"/>
  <circle class="fil0" transform="matrix(0.00880394 -0.00606397 0.00194548 0.00282453 12892.2 11621)" r="1383.7"/>
  <ellipse class="fil0" cx="9770.48" cy="8245.4" rx="62.8" ry="20.15"/>
  <circle class="fil0" transform="matrix(0.00880394 -0.00606397 0.00194548 0.00282453 9755.53 7735.4)" r="1383.7"/>
  <circle class="fil0" cx="10926.32" cy="6976.63" r="15.98"/>
  <ellipse class="fil0" cx="10695.31" cy="6873.38" rx="23.72" ry="7.61"/>
  <circle class="fil0" transform="matrix(-0.00332508 0.00229025 -0.000734771 -0.00106677 10701 7066)" r="1383.7"/>
  <ellipse class="fil0" cx="10078.42" cy="4849.7" rx="23.72" ry="7.61"/>
  <ellipse class="fil0" cx="13851.64" cy="5465.81" rx="23.72" ry="7.61"/>
  <ellipse class="fil0" cx="12937.7" cy="4236.55" rx="23.72" ry="7.61"/>
  <ellipse class="fil0" cx="10425.77" cy="8087.42" rx="23.72" ry="7.61"/>
  <ellipse class="fil0" cx="12023.75" cy="3007.28" rx="23.72" ry="7.61"/>
  <ellipse class="fil0" cx="10647.87" cy="7746.39" rx="23.72" ry="7.61"/>
  <ellipse class="fil0" cx="11801.65" cy="3348.31" rx="23.72" ry="7.61"/>
  <ellipse class="fil0" cx="14122.36" cy="3059.62" rx="23.72" ry="7.61"/>
  <circle class="fil0" transform="matrix(0.00332508 -0.00229025 0.000734771 0.00106677 13623.9 5614.22)" r="1383.7"/>
  <circle class="fil0" transform="matrix(-0.00332508 0.00229025 -0.000734771 -0.00106677 10653.5 7939.01)" r="1383.7"/>
  <circle class="fil0" transform="matrix(0.00332508 -0.00229025 0.000734771 0.00106677 11796 3155.69)" r="1383.7"/>
  <circle class="fil0" transform="matrix(0.00332508 -0.00229025 0.000734771 0.00106677 14116.7 2867.01)" r="1383.7"/>
  <circle class="fil0" cx="12776.78" cy="8068.3" r="15.98"/>
  <ellipse class="fil0" cx="12323.67" cy="7830.52" rx="23.72" ry="7.61"/>
  <circle class="fil0" transform="matrix(-0.014117 -0.0097235 -0.00311955 0.0045291 12686.4 7845.74)" r="1383.7"/>
  <circle class="fil0" transform="matrix(-0.00332508 -0.00229025 -0.000734771 0.00106677 12551.4 7978.93)" r="1383.7"/>
  <circle class="fil0" cx="12776.78" cy="6953.1" r="15.98"/>
  <ellipse class="fil0" cx="12323.67" cy="6715.33" rx="23.72" ry="7.61"/>
  <ellipse class="fil0" cx="12545.77" cy="7056.36" rx="23.72" ry="7.61"/>
  <circle class="fil0" transform="matrix(-0.014117 -0.0097235 -0.00311955 0.0045291 12686.4 6730.55)" r="1383.7"/>
  <circle class="fil0" transform="matrix(-0.00332508 -0.00229025 -0.000734771 0.00106677 12551.4 6863.74)" r="1383.7"/>
  <circle class="fil0" cx="11419.14" cy="7157.6" r="15.98"/>
  <ellipse class="fil0" cx="10966.02" cy="6919.83" rx="23.72" ry="7.61"/>
  <circle class="fil0" transform="matrix(-0.014117 -0.0097235 -0.00311955 0.0045291 11328.8 6935.05)" r="1383.7"/>
  <circle class="fil0" transform="matrix(-0.00332508 -0.00229025 -0.000734771 0.00106677 11193.8 7068.24)" r="1383.7"/>
  <circle class="fil0" cx="14642.84" cy="499.5" r="15.98"/>
  <ellipse class="fil0" cx="14873.85" cy="602.76" rx="23.72" ry="7.61"/>
  <circle class="fil0" transform="matrix(0.014117 -0.0097235 0.00311955 0.0045291 14733.2 276.946)" r="1383.7"/>
  <circle class="fil0" transform="matrix(0.00332508 -0.00229025 0.000734771 0.00106677 14868.2 410.137)" r="1383.7"/>
  <ellipse class="fil0" cx="15512.71" cy="9075.63" rx="23.72" ry="7.61"/>
  <circle class="fil0" transform="matrix(0.00332508 -0.00229025 0.000734771 0.00106677 15507.1 8883.01)" r="1383.7"/>
  <ellipse class="fil0" cx="23985.95" cy="13270.56" rx="62.8" ry="20.15"/>
  <ellipse class="fil0" cx="27124.1" cy="10746.61" rx="62.8" ry="20.15"/>
  <circle class="fil0" transform="matrix(0.00880394 0.00606397 0.00194548 -0.00282453 25214.8 9771.98)" r="1383.7"/>
  <ellipse class="fil0" cx="26531.43" cy="14213.82" rx="62.8" ry="20.15"/>
  <ellipse class="fil0" cx="22093.04" cy="13147.57" rx="62.8" ry="20.15"/>
  <circle class="fil0" transform="matrix(0.00880394 0.00606397 0.00194548 -0.00282453 22078.1 13657.6)" r="1383.7"/>
  <circle class="fil0" cx="23248.88" cy="14416.34" r="15.98"/>
  <ellipse class="fil0" cx="23017.86" cy="14519.6" rx="23.72" ry="7.61"/>
  <circle class="fil0" transform="matrix(-0.00332508 -0.00229025 -0.000734771 0.00106677 23023.5 14327)" r="1383.7"/>
  <ellipse class="fil0" cx="22400.97" cy="16543.28" rx="23.72" ry="7.61"/>
  <ellipse class="fil0" cx="26174.2" cy="15927.16" rx="23.72" ry="7.61"/>
  <ellipse class="fil0" cx="25260.26" cy="17156.42" rx="23.72" ry="7.61"/>
  <ellipse class="fil0" cx="22748.32" cy="13305.55" rx="23.72" ry="7.61"/>
  <ellipse class="fil0" cx="25952.1" cy="15586.13" rx="23.72" ry="7.61"/>
  <ellipse class="fil0" cx="22970.42" cy="13646.58" rx="23.72" ry="7.61"/>
  <ellipse class="fil0" cx="24124.21" cy="18044.66" rx="23.72" ry="7.61"/>
  <circle class="fil0" transform="matrix(0.00332508 0.00229025 0.000734771 -0.00106677 25946.5 15778.7)" r="1383.7"/>
  <circle class="fil0" transform="matrix(-0.00332508 -0.00229025 -0.000734771 0.00106677 22976.1 13454)" r="1383.7"/>
  <circle class="fil0" cx="25099.34" cy="13324.67" r="15.98"/>
  <ellipse class="fil0" cx="24646.22" cy="13562.45" rx="23.72" ry="7.61"/>
  <circle class="fil0" transform="matrix(-0.014117 0.0097235 -0.00311955 -0.0045291 25009 13547.2)" r="1383.7"/>
  <circle class="fil0" transform="matrix(-0.00332508 0.00229025 -0.000734771 -0.00106677 24874 13414)" r="1383.7"/>
  <circle class="fil0" cx="25099.34" cy="14439.87" r="15.98"/>
  <ellipse class="fil0" cx="24646.22" cy="14677.65" rx="23.72" ry="7.61"/>
  <ellipse class="fil0" cx="24868.33" cy="14336.62" rx="23.72" ry="7.61"/>
  <circle class="fil0" transform="matrix(-0.014117 0.0097235 -0.00311955 -0.0045291 25009 14662.4)" r="1383.7"/>
  <circle class="fil0" transform="matrix(-0.00332508 0.00229025 -0.000734771 -0.00106677 24874 14529.2)" r="1383.7"/>
  <circle class="fil0" cx="23741.69" cy="14235.37" r="15.98"/>
  <ellipse class="fil0" cx="23288.58" cy="14473.14" rx="23.72" ry="7.61"/>
  <circle class="fil0" transform="matrix(-0.014117 0.0097235 -0.00311955 -0.0045291 23651.3 14457.9)" r="1383.7"/>
  <circle class="fil0" transform="matrix(-0.00332508 0.00229025 -0.000734771 -0.00106677 23516.3 14324.7)" r="1383.7"/>
  <circle class="fil0" cx="21455.04" cy="16600.08" r="15.98"/>
  <circle class="fil0" cx="26166.46" cy="14152.2" r="15.98"/>
  <ellipse class="fil0" cx="21686.05" cy="16496.82" rx="23.72" ry="7.61"/>
  <ellipse class="fil0" cx="26397.48" cy="14048.94" rx="23.72" ry="7.61"/>
  <circle class="fil0" transform="matrix(0.014117 0.0097235 0.00311955 -0.0045291 21545.4 16822.6)" r="1383.7"/>
  <circle class="fil0" transform="matrix(0.014117 0.0097235 0.00311955 -0.0045291 26256.8 14374.8)" r="1383.7"/>
  <circle class="fil0" transform="matrix(0.00332508 0.00229025 0.000734771 -0.00106677 21680.4 16689.4)" r="1383.7"/>
  <circle class="fil0" transform="matrix(0.00332508 0.00229025 0.000734771 -0.00106677 26391.8 14241.6)" r="1383.7"/>
  <circle class="fil0" cx="27604.26" cy="12420.6" r="15.98"/>
  <ellipse class="fil0" cx="27835.27" cy="12317.35" rx="23.72" ry="7.61"/>
  <circle class="fil0" transform="matrix(0.014117 0.0097235 0.00311955 -0.0045291 27694.6 12643.2)" r="1383.7"/>
  <circle class="fil0" transform="matrix(0.00332508 0.00229025 0.000734771 -0.00106677 27829.6 12510)" r="1383.7"/>
  <ellipse class="fil0" cx="25785.22" cy="2820.07" rx="62.8" ry="20.15"/>
  <circle class="fil0" transform="matrix(0.00880394 0.00606397 0.00194548 -0.00282453 23875.9 1845.45)" r="1383.7"/>
  <ellipse class="fil0" cx="25192.56" cy="6287.29" rx="62.8" ry="20.15"/>
  <ellipse class="fil0" cx="21408.22" cy="241.95" rx="62.8" ry="20.15"/>
  <circle class="fil0" transform="matrix(0.00880394 0.00606397 0.00194548 -0.00282453 20739.2 5731.04)" r="1383.7"/>
  <ellipse class="fil0" cx="21062.1" cy="8616.74" rx="23.72" ry="7.61"/>
  <ellipse class="fil0" cx="24835.32" cy="8000.62" rx="23.72" ry="7.61"/>
  <ellipse class="fil0" cx="23921.38" cy="9229.89" rx="23.72" ry="7.61"/>
  <ellipse class="fil0" cx="23007.43" cy="10459.16" rx="23.72" ry="7.61"/>
  <ellipse class="fil0" cx="24613.22" cy="7659.6" rx="23.72" ry="7.61"/>
  <ellipse class="fil0" cx="22785.33" cy="10118.13" rx="23.72" ry="7.61"/>
  <ellipse class="fil0" cx="25106.04" cy="10406.81" rx="23.72" ry="7.61"/>
  <circle class="fil0" transform="matrix(0.00332508 0.00229025 0.000734771 -0.00106677 24607.6 7852.21)" r="1383.7"/>
  <circle class="fil0" transform="matrix(0.00332508 0.00229025 0.000734771 -0.00106677 22779.7 10310.7)" r="1383.7"/>
  <circle class="fil0" transform="matrix(0.00332508 0.00229025 0.000734771 -0.00106677 25100.4 10599.4)" r="1383.7"/>
  <circle class="fil0" cx="20116.16" cy="8673.54" r="15.98"/>
  <circle class="fil0" cx="24827.59" cy="6225.66" r="15.98"/>
  <ellipse class="fil0" cx="20347.18" cy="8570.29" rx="23.72" ry="7.61"/>
  <ellipse class="fil0" cx="25058.6" cy="6122.41" rx="23.72" ry="7.61"/>
  <circle class="fil0" transform="matrix(0.014117 0.0097235 0.00311955 -0.0045291 20206.5 8896.1)" r="1383.7"/>
  <circle class="fil0" transform="matrix(0.014117 0.0097235 0.00311955 -0.0045291 24917.9 6448.22)" r="1383.7"/>
  <circle class="fil0" transform="matrix(0.00332508 0.00229025 0.000734771 -0.00106677 20341.5 8762.91)" r="1383.7"/>
  <circle class="fil0" transform="matrix(0.00332508 0.00229025 0.000734771 -0.00106677 25053 6315.03)" r="1383.7"/>
  <circle class="fil0" cx="26265.38" cy="4494.07" r="15.98"/>
  <ellipse class="fil0" cx="26496.39" cy="4390.81" rx="23.72" ry="7.61"/>
  <circle class="fil0" transform="matrix(0.014117 0.0097235 0.00311955 -0.0045291 26355.7 4716.62)" r="1383.7"/>
  <circle class="fil0" transform="matrix(0.00332508 0.00229025 0.000734771 -0.00106677 26490.7 4583.43)" r="1383.7"/>
  <ellipse class="fil0" cx="16195.6" cy="11659.32" rx="62.8" ry="20.15"/>
  <circle class="fil0" transform="matrix(-0.00880394 0.00606397 -0.00194548 -0.00282453 14966.8 8160.74)" r="1383.7"/>
  <ellipse class="fil0" cx="18088.51" cy="11536.32" rx="62.8" ry="20.15"/>
  <circle class="fil0" transform="matrix(-0.00880394 0.00606397 -0.00194548 -0.00282453 18103.5 12046.3)" r="1383.7"/>
  <circle class="fil0" cx="16932.67" cy="12805.09" r="15.98"/>
  <ellipse class="fil0" cx="17163.68" cy="12908.35" rx="23.72" ry="7.61"/>
  <circle class="fil0" transform="matrix(0.00332508 -0.00229025 0.000734771 0.00106677 17158 12715.7)" r="1383.7"/>
  <ellipse class="fil0" cx="17780.58" cy="14932.03" rx="23.72" ry="7.61"/>
  <ellipse class="fil0" cx="14007.35" cy="14315.91" rx="23.72" ry="7.61"/>
  <ellipse class="fil0" cx="14921.29" cy="15545.18" rx="23.72" ry="7.61"/>
  <ellipse class="fil0" cx="17433.22" cy="11694.3" rx="23.72" ry="7.61"/>
  <ellipse class="fil0" cx="15835.24" cy="16774.44" rx="23.72" ry="7.61"/>
  <ellipse class="fil0" cx="17211.12" cy="12035.33" rx="23.72" ry="7.61"/>
  <ellipse class="fil0" cx="16057.34" cy="16433.41" rx="23.72" ry="7.61"/>
  <ellipse class="fil0" cx="13736.63" cy="16722.1" rx="23.72" ry="7.61"/>
  <circle class="fil0" transform="matrix(-0.00332508 0.00229025 -0.000734771 -0.00106677 14235.1 14167.5)" r="1383.7"/>
  <circle class="fil0" transform="matrix(0.00332508 -0.00229025 0.000734771 0.00106677 17205.5 11842.7)" r="1383.7"/>
  <circle class="fil0" transform="matrix(-0.00332508 0.00229025 -0.000734771 -0.00106677 16063 16626)" r="1383.7"/>
  <circle class="fil0" transform="matrix(-0.00332508 0.00229025 -0.000734771 -0.00106677 13742.3 16914.7)" r="1383.7"/>
  <circle class="fil0" cx="15082.21" cy="11713.43" r="15.98"/>
  <ellipse class="fil0" cx="15535.32" cy="11951.2" rx="23.72" ry="7.61"/>
  <circle class="fil0" transform="matrix(0.014117 0.0097235 0.00311955 -0.0045291 15172.6 11936)" r="1383.7"/>
  <circle class="fil0" transform="matrix(0.00332508 0.00229025 0.000734771 -0.00106677 15307.6 11802.8)" r="1383.7"/>
  <circle class="fil0" cx="15082.21" cy="12828.62" r="15.98"/>
  <ellipse class="fil0" cx="15535.32" cy="13066.4" rx="23.72" ry="7.61"/>
  <ellipse class="fil0" cx="15313.22" cy="12725.37" rx="23.72" ry="7.61"/>
  <circle class="fil0" transform="matrix(0.014117 0.0097235 0.00311955 -0.0045291 15172.6 13051.2)" r="1383.7"/>
  <circle class="fil0" transform="matrix(0.00332508 0.00229025 0.000734771 -0.00106677 15307.6 12918)" r="1383.7"/>
  <circle class="fil0" cx="16439.86" cy="12624.12" r="15.98"/>
  <ellipse class="fil0" cx="16892.97" cy="12861.9" rx="23.72" ry="7.61"/>
  <circle class="fil0" transform="matrix(0.014117 0.0097235 0.00311955 -0.0045291 16530.2 12846.7)" r="1383.7"/>
  <circle class="fil0" transform="matrix(0.00332508 0.00229025 0.000734771 -0.00106677 16665.2 12713.5)" r="1383.7"/>
  <circle class="fil0" cx="18726.51" cy="14988.83" r="15.98"/>
  <ellipse class="fil0" cx="18495.49" cy="14885.58" rx="23.72" ry="7.61"/>
  <circle class="fil0" transform="matrix(-0.014117 0.0097235 -0.00311955 -0.0045291 18636.1 15211.4)" r="1383.7"/>
  <circle class="fil0" transform="matrix(-0.00332508 0.00229025 -0.000734771 -0.00106677 18501.1 15078.2)" r="1383.7"/>
  <ellipse class="fil0" cx="12346.28" cy="10706.1" rx="23.72" ry="7.61"/>
  <circle class="fil0" transform="matrix(-0.00332508 0.00229025 -0.000734771 -0.00106677 12351.9 10898.7)" r="1383.7"/>
  <ellipse class="fil0" cx="3873.04" cy="6511.16" rx="62.8" ry="20.15"/>
  <ellipse class="fil0" cx="734.89" cy="9035.12" rx="62.8" ry="20.15"/>
  <circle class="fil0" transform="matrix(-0.00880394 -0.00606397 -0.00194548 0.00282453 2644.24 10009.7)" r="1383.7"/>
  <ellipse class="fil0" cx="1327.56" cy="5567.9" rx="62.8" ry="20.15"/>
  <ellipse class="fil0" cx="5765.95" cy="6634.15" rx="62.8" ry="20.15"/>
  <circle class="fil0" transform="matrix(-0.00880394 -0.00606397 -0.00194548 0.00282453 15742.5 869.63)" r="1383.7"/>
  <circle class="fil0" cx="14571.68" cy="110.86" r="15.98"/>
  <ellipse class="fil0" cx="14802.69" cy="7.61" rx="23.72" ry="7.61"/>
  <circle class="fil0" transform="matrix(0.00332508 0.00229025 0.000734771 -0.00106677 14797 200.226)" r="1383.7"/>
  <ellipse class="fil0" cx="5458.02" cy="3238.45" rx="23.72" ry="7.61"/>
  <ellipse class="fil0" cx="15893.73" cy="5113.54" rx="23.72" ry="7.61"/>
  <ellipse class="fil0" cx="16807.68" cy="3884.28" rx="23.72" ry="7.61"/>
  <ellipse class="fil0" cx="15072.23" cy="1221.65" rx="23.72" ry="7.61"/>
  <ellipse class="fil0" cx="16115.84" cy="5454.57" rx="23.72" ry="7.61"/>
  <ellipse class="fil0" cx="14850.13" cy="880.62" rx="23.72" ry="7.61"/>
  <ellipse class="fil0" cx="17943.73" cy="2996.04" rx="23.72" ry="7.61"/>
  <circle class="fil0" transform="matrix(-0.00332508 -0.00229025 -0.000734771 0.00106677 16121.5 5261.95)" r="1383.7"/>
  <circle class="fil0" transform="matrix(0.00332508 0.00229025 0.000734771 -0.00106677 14844.5 1073.24)" r="1383.7"/>
  <circle class="fil0" cx="2759.65" cy="6457.05" r="15.98"/>
  <ellipse class="fil0" cx="3212.77" cy="6219.28" rx="23.72" ry="7.61"/>
  <circle class="fil0" transform="matrix(0.014117 -0.0097235 0.00311955 0.0045291 2850.01 6234.5)" r="1383.7"/>
  <circle class="fil0" transform="matrix(0.00332508 -0.00229025 0.000734771 0.00106677 2985.02 6367.69)" r="1383.7"/>
  <circle class="fil0" cx="16968.6" cy="6600.83" r="15.98"/>
  <ellipse class="fil0" cx="17421.71" cy="6363.05" rx="23.72" ry="7.61"/>
  <ellipse class="fil0" cx="2990.67" cy="5445.11" rx="23.72" ry="7.61"/>
  <circle class="fil0" transform="matrix(0.014117 -0.0097235 0.00311955 0.0045291 17059 6378.27)" r="1383.7"/>
  <circle class="fil0" transform="matrix(0.00332508 -0.00229025 0.000734771 0.00106677 17194 6511.46)" r="1383.7"/>
  <circle class="fil0" cx="4117.3" cy="5546.36" r="15.98"/>
  <ellipse class="fil0" cx="14531.98" cy="54.06" rx="23.72" ry="7.61"/>
  <circle class="fil0" transform="matrix(0.014117 -0.0097235 0.00311955 0.0045291 18416.6 6582.78)" r="1383.7"/>
  <circle class="fil0" transform="matrix(0.00332508 -0.00229025 0.000734771 0.00106677 14304.2 202.47)" r="1383.7"/>
  <circle class="fil0" cx="6403.95" cy="3181.65" r="15.98"/>
  <circle class="fil0" cx="1692.53" cy="5629.53" r="15.98"/>
  <ellipse class="fil0" cx="6172.94" cy="3284.9" rx="23.72" ry="7.61"/>
  <ellipse class="fil0" cx="1461.51" cy="5732.78" rx="23.72" ry="7.61"/>
  <circle class="fil0" transform="matrix(-0.014117 -0.0097235 -0.00311955 0.0045291 6313.59 2959.09)" r="1383.7"/>
  <circle class="fil0" transform="matrix(-0.014117 -0.0097235 -0.00311955 0.0045291 1602.17 5406.97)" r="1383.7"/>
  <circle class="fil0" transform="matrix(-0.00332508 -0.00229025 -0.000734771 0.00106677 6178.58 3092.28)" r="1383.7"/>
  <circle class="fil0" transform="matrix(-0.00332508 -0.00229025 -0.000734771 0.00106677 1467.16 5540.16)" r="1383.7"/>
  <circle class="fil0" cx="254.74" cy="7361.13" r="15.98"/>
  <ellipse class="fil0" cx="23.72" cy="7464.38" rx="23.72" ry="7.61"/>
  <circle class="fil0" transform="matrix(-0.014117 -0.0097235 -0.00311955 0.0045291 164.376 7138.57)" r="1383.7"/>
  <circle class="fil0" transform="matrix(-0.00332508 -0.00229025 -0.000734771 0.00106677 29.3693 7271.76)" r="1383.7"/>
  <ellipse class="fil0" cx="2073.77" cy="16961.65" rx="62.8" ry="20.15"/>
  <circle class="fil0" transform="matrix(-0.00880394 -0.00606397 -0.00194548 0.00282453 3983.12 17936.3)" r="1383.7"/>
  <ellipse class="fil0" cx="2666.43" cy="13494.44" rx="62.8" ry="20.15"/>
  <ellipse class="fil0" cx="7104.83" cy="14560.69" rx="62.8" ry="20.15"/>
  <circle class="fil0" transform="matrix(-0.00880394 -0.00606397 -0.00194548 0.00282453 7119.78 14050.7)" r="1383.7"/>
  <ellipse class="fil0" cx="6796.9" cy="11164.98" rx="23.72" ry="7.61"/>
  <ellipse class="fil0" cx="3023.67" cy="11781.1" rx="23.72" ry="7.61"/>
  <ellipse class="fil0" cx="3937.61" cy="10551.84" rx="23.72" ry="7.61"/>
  <ellipse class="fil0" cx="4851.56" cy="9322.57" rx="23.72" ry="7.61"/>
  <ellipse class="fil0" cx="3245.77" cy="12122.13" rx="23.72" ry="7.61"/>
  <ellipse class="fil0" cx="5073.66" cy="9663.6" rx="23.72" ry="7.61"/>
  <ellipse class="fil0" cx="2752.95" cy="9374.91" rx="23.72" ry="7.61"/>
  <circle class="fil0" transform="matrix(-0.00332508 -0.00229025 -0.000734771 0.00106677 3251.41 11929.5)" r="1383.7"/>
  <circle class="fil0" transform="matrix(-0.00332508 -0.00229025 -0.000734771 0.00106677 5079.31 9470.98)" r="1383.7"/>
  <circle class="fil0" transform="matrix(-0.00332508 -0.00229025 -0.000734771 0.00106677 2758.6 9182.29)" r="1383.7"/>
  <circle class="fil0" cx="7742.83" cy="11108.18" r="15.98"/>
  <circle class="fil0" cx="3031.4" cy="13556.06" r="15.98"/>
  <ellipse class="fil0" cx="7511.81" cy="11211.43" rx="23.72" ry="7.61"/>
  <ellipse class="fil0" cx="2800.39" cy="13659.32" rx="23.72" ry="7.61"/>
  <circle class="fil0" transform="matrix(-0.014117 -0.0097235 -0.00311955 0.0045291 7652.47 10885.6)" r="1383.7"/>
  <circle class="fil0" transform="matrix(-0.014117 -0.0097235 -0.00311955 0.0045291 2941.04 13333.5)" r="1383.7"/>
  <circle class="fil0" transform="matrix(-0.00332508 -0.00229025 -0.000734771 0.00106677 7517.46 11018.8)" r="1383.7"/>
  <circle class="fil0" transform="matrix(-0.00332508 -0.00229025 -0.000734771 0.00106677 2806.04 13466.7)" r="1383.7"/>
  <circle class="fil0" cx="1593.61" cy="15287.66" r="15.98"/>
  <ellipse class="fil0" cx="1362.6" cy="15390.91" rx="23.72" ry="7.61"/>
  <circle class="fil0" transform="matrix(-0.014117 -0.0097235 -0.00311955 0.0045291 1503.25 15065.1)" r="1383.7"/>
  <circle class="fil0" transform="matrix(-0.00332508 -0.00229025 -0.000734771 0.00106677 1368.25 15198.3)" r="1383.7"/>
  <ellipse class="fil0" cx="3512.68" cy="1396.04" rx="23.72" ry="7.61"/>
  <ellipse class="fil0" cx="1414.08" cy="1448.38" rx="23.72" ry="7.61"/>
  <circle class="fil0" transform="matrix(-0.00332508 -0.00229025 -0.000734771 0.00106677 17949.4 2803.42)" r="1383.7"/>
  <circle class="fil0" transform="matrix(-0.00332508 -0.00229025 -0.000734771 0.00106677 1419.72 1255.76)" r="1383.7"/>
 </g>
</svg>
