<?xml version="1.0" encoding="UTF-8"?>
<!DOCTYPE svg PUBLIC "-//W3C//DTD SVG 1.1//EN" "http://www.w3.org/Graphics/SVG/1.1/DTD/svg11.dtd">
<!-- Creator: CorelDRAW 2018 (64 Bit Versão de avaliação) -->
<svg xmlns="http://www.w3.org/2000/svg" xml:space="preserve" width="462.767mm" height="247.259mm" version="1.1" style="shape-rendering:geometricPrecision; text-rendering:geometricPrecision; image-rendering:optimizeQuality; fill-rule:evenodd; clip-rule:evenodd"
viewBox="0 0 46276.68 24725.88"
 xmlns:xlink="http://www.w3.org/1999/xlink">
 <defs>
  <style type="text/css">
   <![CDATA[
    .fil0 {fill:#E6E6E6}
   ]]>
  </style>
 </defs>
 <g id="Conteúdo_x0020_do_x0020_PowerClip">
  <metadata id="CorelCorpID_0Corel-Layer"/>
  <ellipse class="fil0" cx="6122.87" cy="9444.35" rx="103.12" ry="33.08"/>
  <ellipse class="fil0" cx="1942.92" cy="7895.43" rx="103.12" ry="33.08"/>
  <circle class="fil0" cx="4294.56" cy="9355.5" r="26.25"/>
  <ellipse class="fil0" cx="5038.62" cy="8965.04" rx="38.95" ry="12.49"/>
  <circle class="fil0" transform="matrix(0.0178356 -0.0122848 0.00394128 0.00572212 4442.94 8990.04)" r="1798.44"/>
  <circle class="fil0" transform="matrix(0.00420096 -0.00289353 0.000928319 0.00134777 4664.64 9208.74)" r="1798.44"/>
  <ellipse class="fil0" cx="4673.91" cy="7693.78" rx="38.95" ry="12.49"/>
  <circle class="fil0" cx="6523.96" cy="7860.04" r="26.25"/>
  <circle class="fil0" cx="2542.24" cy="7996.62" r="26.25"/>
  <ellipse class="fil0" cx="2162.89" cy="8166.17" rx="38.95" ry="12.49"/>
  <circle class="fil0" transform="matrix(-0.0178356 -0.0122848 -0.00394128 0.00572212 2393.86 7631.16)" r="1798.44"/>
  <circle class="fil0" transform="matrix(-0.00420096 -0.00289353 -0.000928319 0.00134777 2172.16 7849.87)" r="1798.44"/>
  <circle class="fil0" cx="181.24" cy="10840.08" r="26.25"/>
  <circle class="fil0" transform="matrix(-0.0178356 -0.0122848 -0.00394128 0.00572212 32.8626 10474.6)" r="1798.44"/>
  <ellipse class="fil0" cx="5531.11" cy="1044.8" rx="38.95" ry="12.49"/>
  <ellipse class="fil0" cx="2084.99" cy="1130.74" rx="38.95" ry="12.49"/>
  <circle class="fil0" transform="matrix(-0.00420096 -0.00289353 -0.000928319 0.00134777 2094.27 814.447)" r="1798.44"/>
  <ellipse class="fil0" cx="4002.36" cy="12775.81" rx="38.95" ry="12.49"/>
  <circle class="fil0" transform="matrix(0.0178356 -0.0122848 0.00394128 0.00572212 3406.68 12800.9)" r="1798.44"/>
  <ellipse class="fil0" cx="2655.8" cy="9165.12" rx="38.95" ry="12.49"/>
  <circle class="fil0" transform="matrix(0.0178356 -0.0122848 0.00394128 0.00572212 2060.12 9190.1)" r="1798.44"/>
  <ellipse class="fil0" cx="33668.6" cy="9727.21" rx="103.12" ry="33.08"/>
  <ellipse class="fil0" cx="37848.56" cy="8178.29" rx="103.12" ry="33.08"/>
  <circle class="fil0" cx="35496.91" cy="9638.36" r="26.25"/>
  <ellipse class="fil0" cx="34752.86" cy="9247.91" rx="38.95" ry="12.49"/>
  <circle class="fil0" transform="matrix(-0.0178356 -0.0122848 -0.00394128 0.00572212 35348.6 9272.89)" r="1798.44"/>
  <circle class="fil0" transform="matrix(-0.00420096 -0.00289353 -0.000928319 0.00134777 35126.9 9491.6)" r="1798.44"/>
  <ellipse class="fil0" cx="35117.57" cy="7976.64" rx="38.95" ry="12.49"/>
  <circle class="fil0" cx="33267.52" cy="8142.9" r="26.25"/>
  <circle class="fil0" cx="37249.24" cy="8279.48" r="26.25"/>
  <ellipse class="fil0" cx="37628.59" cy="8449.04" rx="38.95" ry="12.49"/>
  <circle class="fil0" transform="matrix(0.0178356 -0.0122848 0.00394128 0.00572212 37397.6 7914.02)" r="1798.44"/>
  <circle class="fil0" transform="matrix(0.00420096 -0.00289353 0.000928319 0.00134777 37619.4 8132.73)" r="1798.44"/>
  <circle class="fil0" cx="39610.23" cy="11122.94" r="26.25"/>
  <ellipse class="fil0" cx="39989.58" cy="11292.48" rx="38.95" ry="12.49"/>
  <circle class="fil0" transform="matrix(0.0178356 -0.0122848 0.00394128 0.00572212 39758.6 10757.5)" r="1798.44"/>
  <circle class="fil0" transform="matrix(0.00420096 -0.00289353 0.000928319 0.00134777 39980.3 10976.2)" r="1798.44"/>
  <ellipse class="fil0" cx="34260.37" cy="1327.65" rx="38.95" ry="12.49"/>
  <ellipse class="fil0" cx="37706.49" cy="1413.6" rx="38.95" ry="12.49"/>
  <circle class="fil0" transform="matrix(0.00420096 -0.00289353 0.000928319 0.00134777 37697.3 1097.31)" r="1798.44"/>
  <ellipse class="fil0" cx="35789.11" cy="13058.67" rx="38.95" ry="12.49"/>
  <circle class="fil0" transform="matrix(-0.0178356 -0.0122848 -0.00394128 0.00572212 36384.8 13083.6)" r="1798.44"/>
  <ellipse class="fil0" cx="37135.67" cy="9447.98" rx="38.95" ry="12.49"/>
  <circle class="fil0" transform="matrix(-0.0178356 -0.0122848 -0.00394128 0.00572212 37731.4 9472.96)" r="1798.44"/>
  <ellipse class="fil0" cx="44422.13" cy="2674.21" rx="103.12" ry="33.08"/>
  <circle class="fil0" cx="46250.43" cy="2763.06" r="26.25"/>
  <ellipse class="fil0" cx="45506.37" cy="3153.51" rx="38.95" ry="12.49"/>
  <circle class="fil0" transform="matrix(-0.0178356 0.0122848 -0.00394128 -0.00572212 46102 3128.52)" r="1798.44"/>
  <circle class="fil0" transform="matrix(-0.00420096 0.00289353 -0.000928319 -0.00134777 45880.3 2909.81)" r="1798.44"/>
  <ellipse class="fil0" cx="45871.08" cy="4424.78" rx="38.95" ry="12.49"/>
  <circle class="fil0" cx="44021.04" cy="4258.52" r="26.25"/>
  <ellipse class="fil0" cx="5299.34" cy="19520.12" rx="103.12" ry="33.08"/>
  <ellipse class="fil0" cx="9479.29" cy="17971.21" rx="103.12" ry="33.08"/>
  <circle class="fil0" cx="7127.65" cy="19431.27" r="26.25"/>
  <ellipse class="fil0" cx="6383.58" cy="19040.82" rx="38.95" ry="12.49"/>
  <circle class="fil0" transform="matrix(-0.0178356 -0.0122848 -0.00394128 0.00572212 6979.26 19065.8)" r="1798.44"/>
  <circle class="fil0" transform="matrix(-0.00420096 -0.00289353 -0.000928319 0.00134777 6757.57 19284.6)" r="1798.44"/>
  <ellipse class="fil0" cx="6748.31" cy="17769.57" rx="38.95" ry="12.49"/>
  <circle class="fil0" cx="4898.26" cy="17935.83" r="26.25"/>
  <circle class="fil0" cx="8879.97" cy="18072.4" r="26.25"/>
  <ellipse class="fil0" cx="9259.33" cy="18241.95" rx="38.95" ry="12.49"/>
  <circle class="fil0" transform="matrix(0.0178356 -0.0122848 0.00394128 0.00572212 9028.36 17707)" r="1798.44"/>
  <circle class="fil0" transform="matrix(0.00420096 -0.00289353 0.000928319 0.00134777 9250.05 17925.7)" r="1798.44"/>
  <circle class="fil0" cx="11240.97" cy="20915.86" r="26.25"/>
  <ellipse class="fil0" cx="11620.32" cy="21085.41" rx="38.95" ry="12.49"/>
  <circle class="fil0" transform="matrix(0.0178356 -0.0122848 0.00394128 0.00572212 11389.4 20550.3)" r="1798.44"/>
  <circle class="fil0" transform="matrix(0.00420096 -0.00289353 0.000928319 0.00134777 11611.1 20769.2)" r="1798.44"/>
  <ellipse class="fil0" cx="5891.09" cy="11120.58" rx="38.95" ry="12.49"/>
  <ellipse class="fil0" cx="9337.22" cy="11206.53" rx="38.95" ry="12.49"/>
  <circle class="fil0" transform="matrix(0.00420096 -0.00289353 0.000928319 0.00134777 9327.94 10890.2)" r="1798.44"/>
  <ellipse class="fil0" cx="7419.85" cy="22851.6" rx="38.95" ry="12.49"/>
  <circle class="fil0" transform="matrix(-0.0178356 -0.0122848 -0.00394128 0.00572212 8015.53 22876.6)" r="1798.44"/>
  <ellipse class="fil0" cx="8766.41" cy="19240.9" rx="38.95" ry="12.49"/>
  <circle class="fil0" transform="matrix(-0.0178356 -0.0122848 -0.00394128 0.00572212 9362.09 19265.8)" r="1798.44"/>
  <circle class="fil0" cx="8570.37" cy="7985.52" r="26.25"/>
  <ellipse class="fil0" cx="8949.73" cy="8155.08" rx="38.95" ry="12.49"/>
  <circle class="fil0" transform="matrix(0.0178356 -0.0122848 0.00394128 0.00572212 8718.76 7620.07)" r="1798.44"/>
  <circle class="fil0" transform="matrix(0.00420096 -0.00289353 0.000928319 0.00134777 8940.45 7838.78)" r="1798.44"/>
  <ellipse class="fil0" cx="25358.92" cy="14921.24" rx="103.12" ry="33.08"/>
  <ellipse class="fil0" cx="29538.87" cy="13372.32" rx="103.12" ry="33.08"/>
  <circle class="fil0" cx="27187.22" cy="14832.39" r="26.25"/>
  <ellipse class="fil0" cx="26443.16" cy="14441.94" rx="38.95" ry="12.49"/>
  <circle class="fil0" transform="matrix(-0.0178356 -0.0122848 -0.00394128 0.00572212 27038.8 14467)" r="1798.44"/>
  <circle class="fil0" transform="matrix(-0.00420096 -0.00289353 -0.000928319 0.00134777 26817.1 14685.7)" r="1798.44"/>
  <ellipse class="fil0" cx="26807.87" cy="13170.67" rx="38.95" ry="12.49"/>
  <circle class="fil0" cx="24957.82" cy="13336.93" r="26.25"/>
  <circle class="fil0" cx="28939.55" cy="13473.51" r="26.25"/>
  <ellipse class="fil0" cx="29318.9" cy="13643.07" rx="38.95" ry="12.49"/>
  <circle class="fil0" transform="matrix(0.0178356 -0.0122848 0.00394128 0.00572212 29087.9 13108.1)" r="1798.44"/>
  <circle class="fil0" transform="matrix(0.00420096 -0.00289353 0.000928319 0.00134777 29309.6 13326.8)" r="1798.44"/>
  <circle class="fil0" cx="31300.54" cy="16316.97" r="26.25"/>
  <ellipse class="fil0" cx="31679.89" cy="16486.52" rx="38.95" ry="12.49"/>
  <circle class="fil0" transform="matrix(0.0178356 -0.0122848 0.00394128 0.00572212 31449 15951.5)" r="1798.44"/>
  <circle class="fil0" transform="matrix(0.00420096 -0.00289353 0.000928319 0.00134777 31670.6 16170.2)" r="1798.44"/>
  <ellipse class="fil0" cx="27479.42" cy="18252.71" rx="38.95" ry="12.49"/>
  <circle class="fil0" transform="matrix(-0.0178356 -0.0122848 -0.00394128 0.00572212 28075.1 18277.7)" r="1798.44"/>
  <ellipse class="fil0" cx="28825.98" cy="14642.01" rx="38.95" ry="12.49"/>
  <circle class="fil0" transform="matrix(-0.0178356 -0.0122848 -0.00394128 0.00572212 29421.6 14667)" r="1798.44"/>
  <ellipse class="fil0" cx="32068.28" cy="21208.58" rx="103.12" ry="33.08"/>
  <ellipse class="fil0" cx="36248.23" cy="19659.66" rx="103.12" ry="33.08"/>
  <circle class="fil0" cx="33896.58" cy="21119.73" r="26.25"/>
  <ellipse class="fil0" cx="33152.52" cy="20729.28" rx="38.95" ry="12.49"/>
  <circle class="fil0" transform="matrix(-0.0178356 -0.0122848 -0.00394128 0.00572212 33748.2 20754.3)" r="1798.44"/>
  <circle class="fil0" transform="matrix(-0.00420096 -0.00289353 -0.000928319 0.00134777 33526.6 20973)" r="1798.44"/>
  <ellipse class="fil0" cx="33517.23" cy="19458.01" rx="38.95" ry="12.49"/>
  <circle class="fil0" cx="31667.19" cy="19624.27" r="26.25"/>
  <circle class="fil0" cx="35648.91" cy="19760.85" r="26.25"/>
  <ellipse class="fil0" cx="36028.26" cy="19930.41" rx="38.95" ry="12.49"/>
  <circle class="fil0" transform="matrix(0.0178356 -0.0122848 0.00394128 0.00572212 35797.2 19395.4)" r="1798.44"/>
  <circle class="fil0" transform="matrix(0.00420096 -0.00289353 0.000928319 0.00134777 36019 19614.1)" r="1798.44"/>
  <circle class="fil0" cx="38009.91" cy="22604.31" r="26.25"/>
  <ellipse class="fil0" cx="38389.26" cy="22773.86" rx="38.95" ry="12.49"/>
  <circle class="fil0" transform="matrix(0.0178356 -0.0122848 0.00394128 0.00572212 38158.3 22238.9)" r="1798.44"/>
  <circle class="fil0" transform="matrix(0.00420096 -0.00289353 0.000928319 0.00134777 38379.9 22457.6)" r="1798.44"/>
  <ellipse class="fil0" cx="34188.79" cy="24540.03" rx="38.95" ry="12.49"/>
  <circle class="fil0" transform="matrix(-0.0178356 -0.0122848 -0.00394128 0.00572212 34784.5 24565)" r="1798.44"/>
  <ellipse class="fil0" cx="35535.35" cy="20929.35" rx="38.95" ry="12.49"/>
  <circle class="fil0" transform="matrix(-0.0178356 -0.0122848 -0.00394128 0.00572212 36131 20954.4)" r="1798.44"/>
  <ellipse class="fil0" cx="24224.24" cy="24692.8" rx="103.12" ry="33.08"/>
  <ellipse class="fil0" cx="21493.26" cy="24491.16" rx="38.95" ry="12.49"/>
  <circle class="fil0" cx="19643.21" cy="24657.42" r="26.25"/>
  <circle class="fil0" transform="matrix(0.0178356 -0.0122848 0.00394128 0.00572212 23773.3 24428.6)" r="1798.44"/>
  <circle class="fil0" transform="matrix(0.00420096 -0.00289353 0.000928319 0.00134777 23995 24647.3)" r="1798.44"/>
  <ellipse class="fil0" cx="19917.76" cy="1056.43" rx="103.12" ry="33.08"/>
  <circle class="fil0" cx="21746.05" cy="967.58" r="26.25"/>
  <ellipse class="fil0" cx="21002" cy="577.13" rx="38.95" ry="12.49"/>
  <circle class="fil0" transform="matrix(-0.0178356 -0.0122848 -0.00394128 0.00572212 21597.7 602.116)" r="1798.44"/>
  <circle class="fil0" transform="matrix(-0.00420096 -0.00289353 -0.000928319 0.00134777 21376 820.829)" r="1798.44"/>
  <circle class="fil0" cx="25859.37" cy="2452.16" r="26.25"/>
  <ellipse class="fil0" cx="26238.72" cy="2621.71" rx="38.95" ry="12.49"/>
  <circle class="fil0" transform="matrix(0.0178356 -0.0122848 0.00394128 0.00572212 26007.8 2086.7)" r="1798.44"/>
  <circle class="fil0" transform="matrix(0.00420096 -0.00289353 0.000928319 0.00134777 26229.5 2305.41)" r="1798.44"/>
  <ellipse class="fil0" cx="22038.27" cy="4387.9" rx="38.95" ry="12.49"/>
  <circle class="fil0" transform="matrix(-0.0178356 -0.0122848 -0.00394128 0.00572212 22633.9 4412.89)" r="1798.44"/>
  <ellipse class="fil0" cx="23384.81" cy="777.2" rx="38.95" ry="12.49"/>
  <circle class="fil0" transform="matrix(-0.0178356 -0.0122848 -0.00394128 0.00572212 23980.5 802.191)" r="1798.44"/>
  <ellipse class="fil0" cx="36984.34" cy="1837.57" rx="103.12" ry="33.08"/>
  <ellipse class="fil0" cx="41164.3" cy="288.65" rx="103.12" ry="33.08"/>
  <circle class="fil0" cx="38812.65" cy="1748.72" r="26.25"/>
  <ellipse class="fil0" cx="38068.59" cy="1358.27" rx="38.95" ry="12.49"/>
  <circle class="fil0" transform="matrix(-0.0178356 -0.0122848 -0.00394128 0.00572212 38664.2 1383.25)" r="1798.44"/>
  <circle class="fil0" transform="matrix(-0.00420096 -0.00289353 -0.000928319 0.00134777 38442.5 1601.97)" r="1798.44"/>
  <ellipse class="fil0" cx="38433.3" cy="87" rx="38.95" ry="12.49"/>
  <circle class="fil0" cx="36583.26" cy="253.26" r="26.25"/>
  <circle class="fil0" cx="40564.97" cy="389.84" r="26.25"/>
  <ellipse class="fil0" cx="40944.33" cy="559.4" rx="38.95" ry="12.49"/>
  <circle class="fil0" transform="matrix(0.0178356 -0.0122848 0.00394128 0.00572212 40713.3 24.3847)" r="1798.44"/>
  <circle class="fil0" transform="matrix(0.00420096 -0.00289353 0.000928319 0.00134777 40935 243.097)" r="1798.44"/>
  <circle class="fil0" cx="42925.97" cy="3233.3" r="26.25"/>
  <ellipse class="fil0" cx="43305.31" cy="3402.85" rx="38.95" ry="12.49"/>
  <circle class="fil0" transform="matrix(0.0178356 -0.0122848 0.00394128 0.00572212 43074.4 2867.84)" r="1798.44"/>
  <circle class="fil0" transform="matrix(0.00420096 -0.00289353 0.000928319 0.00134777 43296 3086.55)" r="1798.44"/>
  <ellipse class="fil0" cx="39104.85" cy="5169.04" rx="38.95" ry="12.49"/>
  <circle class="fil0" transform="matrix(-0.0178356 -0.0122848 -0.00394128 0.00572212 39700.6 5194.03)" r="1798.44"/>
  <ellipse class="fil0" cx="40451.41" cy="1558.35" rx="38.95" ry="12.49"/>
  <circle class="fil0" transform="matrix(-0.0178356 -0.0122848 -0.00394128 0.00572212 41047.1 1583.33)" r="1798.44"/>
  <ellipse class="fil0" cx="36393.09" cy="4176.38" rx="103.12" ry="33.08"/>
  <ellipse class="fil0" cx="40573.04" cy="2627.46" rx="103.12" ry="33.08"/>
  <circle class="fil0" cx="38221.39" cy="4087.53" r="26.25"/>
  <ellipse class="fil0" cx="37477.34" cy="3697.08" rx="38.95" ry="12.49"/>
  <circle class="fil0" transform="matrix(-0.0178356 -0.0122848 -0.00394128 0.00572212 38073 3722.07)" r="1798.44"/>
  <circle class="fil0" transform="matrix(-0.00420096 -0.00289353 -0.000928319 0.00134777 37851.4 3940.78)" r="1798.44"/>
  <ellipse class="fil0" cx="37842.04" cy="2425.81" rx="38.95" ry="12.49"/>
  <circle class="fil0" cx="35992.01" cy="2592.07" r="26.25"/>
  <circle class="fil0" cx="39973.72" cy="2728.65" r="26.25"/>
  <ellipse class="fil0" cx="40353.07" cy="2898.21" rx="38.95" ry="12.49"/>
  <circle class="fil0" transform="matrix(0.0178356 -0.0122848 0.00394128 0.00572212 40122.2 2363.2)" r="1798.44"/>
  <circle class="fil0" transform="matrix(0.00420096 -0.00289353 0.000928319 0.00134777 40343.8 2581.91)" r="1798.44"/>
  <circle class="fil0" cx="42334.72" cy="5572.11" r="26.25"/>
  <ellipse class="fil0" cx="42714.07" cy="5741.67" rx="38.95" ry="12.49"/>
  <circle class="fil0" transform="matrix(0.0178356 -0.0122848 0.00394128 0.00572212 42483.1 5206.66)" r="1798.44"/>
  <circle class="fil0" transform="matrix(0.00420096 -0.00289353 0.000928319 0.00134777 42704.7 5425.36)" r="1798.44"/>
  <ellipse class="fil0" cx="38513.6" cy="7507.86" rx="38.95" ry="12.49"/>
  <circle class="fil0" transform="matrix(-0.0178356 -0.0122848 -0.00394128 0.00572212 39109.3 7532.84)" r="1798.44"/>
  <ellipse class="fil0" cx="39860.16" cy="3897.16" rx="38.95" ry="12.49"/>
  <circle class="fil0" transform="matrix(-0.0178356 -0.0122848 -0.00394128 0.00572212 40455.8 3922.15)" r="1798.44"/>
  <ellipse class="fil0" cx="19361.71" cy="10824.87" rx="38.95" ry="12.49"/>
  <circle class="fil0" transform="matrix(0.00420096 -0.00289353 0.000928319 0.00134777 19352.5 10508.6)" r="1798.44"/>
  <ellipse class="fil0" cx="18639.57" cy="11248.84" rx="103.12" ry="33.08"/>
  <circle class="fil0" cx="20467.88" cy="11159.99" r="26.25"/>
  <ellipse class="fil0" cx="19723.81" cy="10769.54" rx="38.95" ry="12.49"/>
  <circle class="fil0" transform="matrix(-0.0178356 -0.0122848 -0.00394128 0.00572212 20319.5 10794.6)" r="1798.44"/>
  <circle class="fil0" transform="matrix(-0.00420096 -0.00289353 -0.000928319 0.00134777 20097.8 11013.3)" r="1798.44"/>
  <ellipse class="fil0" cx="20088.54" cy="9498.27" rx="38.95" ry="12.49"/>
  <circle class="fil0" cx="18238.49" cy="9664.53" r="26.25"/>
  <circle class="fil0" cx="22220.2" cy="9801.11" r="26.25"/>
  <ellipse class="fil0" cx="22599.56" cy="9970.66" rx="38.95" ry="12.49"/>
  <circle class="fil0" transform="matrix(0.0178356 -0.0122848 0.00394128 0.00572212 22368.5 9435.65)" r="1798.44"/>
  <circle class="fil0" transform="matrix(0.00420096 -0.00289353 0.000928319 0.00134777 22590.2 9654.36)" r="1798.44"/>
  <ellipse class="fil0" cx="22106.64" cy="10969.61" rx="38.95" ry="12.49"/>
  <circle class="fil0" transform="matrix(-0.0178356 -0.0122848 -0.00394128 0.00572212 22702.3 10994.6)" r="1798.44"/>
  <ellipse class="fil0" cx="22228.27" cy="12038.73" rx="103.12" ry="33.08"/>
  <ellipse class="fil0" cx="19132.56" cy="13108.34" rx="38.95" ry="12.49"/>
  <circle class="fil0" transform="matrix(-0.0178356 -0.0122848 -0.00394128 0.00572212 19728.2 13133.4)" r="1798.44"/>
  <circle class="fil0" transform="matrix(-0.00420096 -0.00289353 -0.000928319 0.00134777 19506.6 13352.1)" r="1798.44"/>
  <ellipse class="fil0" cx="19497.27" cy="11837.08" rx="38.95" ry="12.49"/>
  <circle class="fil0" cx="17647.23" cy="12003.34" r="26.25"/>
  <circle class="fil0" cx="21628.95" cy="12139.92" r="26.25"/>
  <ellipse class="fil0" cx="22008.3" cy="12309.48" rx="38.95" ry="12.49"/>
  <circle class="fil0" transform="matrix(0.0178356 -0.0122848 0.00394128 0.00572212 21777.4 11774.5)" r="1798.44"/>
  <circle class="fil0" transform="matrix(0.00420096 -0.00289353 0.000928319 0.00134777 21999 11993.2)" r="1798.44"/>
  <ellipse class="fil0" cx="21515.39" cy="13308.42" rx="38.95" ry="12.49"/>
  <circle class="fil0" transform="matrix(-0.0178356 -0.0122848 -0.00394128 0.00572212 22111 13333.4)" r="1798.44"/>
 </g>
</svg>
