<?xml version="1.0" encoding="UTF-8"?>
<!DOCTYPE svg PUBLIC "-//W3C//DTD SVG 1.1//EN" "http://www.w3.org/Graphics/SVG/1.1/DTD/svg11.dtd">
<!-- Creator: CorelDRAW 2018 (64 Bit Versão de avaliação) -->
<svg xmlns="http://www.w3.org/2000/svg" xml:space="preserve" width="368.313mm" height="230.073mm" version="1.1" style="shape-rendering:geometricPrecision; text-rendering:geometricPrecision; image-rendering:optimizeQuality; fill-rule:evenodd; clip-rule:evenodd"
viewBox="0 0 28301.8 17679.22"
 xmlns:xlink="http://www.w3.org/1999/xlink">
 <defs>
  <style type="text/css">
   <![CDATA[
    .fil0 {fill:white}
   ]]>
  </style>
 </defs>
 <g id="Conteúdo_x0020_do_x0020_PowerClip">
  <metadata id="CorelCorpID_0Corel-Layer"/>
  <circle class="fil0" cx="8537.8" cy="3490.17" r="45.37"/>
  <ellipse class="fil0" cx="9824.11" cy="2815.17" rx="67.33" ry="21.6"/>
  <circle class="fil0" transform="matrix(0.0401263 -0.0276381 0.00886704 0.0128735 8794.32 2858.38)" r="1381.95"/>
  <circle class="fil0" transform="matrix(0.00945121 -0.00650983 0.00208851 0.0030322 9177.54 3236.48)" r="1381.95"/>
  <ellipse class="fil0" cx="9193.6" cy="617.45" rx="67.33" ry="21.6"/>
  <circle class="fil0" cx="10864.71" cy="8946.76" r="45.37"/>
  <circle class="fil0" cx="5508.42" cy="1140.99" r="45.37"/>
  <ellipse class="fil0" cx="4852.62" cy="1434.11" rx="67.33" ry="21.6"/>
  <circle class="fil0" transform="matrix(-0.0401263 -0.0276381 -0.00886704 0.0128735 5251.91 509.196)" r="1381.95"/>
  <circle class="fil0" transform="matrix(-0.00945121 -0.00650983 -0.00208851 0.0030322 4868.65 887.3)" r="1381.95"/>
  <circle class="fil0" cx="1426.8" cy="6056.67" r="45.37"/>
  <circle class="fil0" transform="matrix(-0.0401263 -0.0276381 -0.00886704 0.0128735 1170.29 5424.88)" r="1381.95"/>
  <ellipse class="fil0" cx="8032.64" cy="9403.13" rx="67.33" ry="21.6"/>
  <circle class="fil0" transform="matrix(0.0401263 -0.0276381 0.00886704 0.0128735 7002.84 9446.34)" r="1381.95"/>
  <ellipse class="fil0" cx="5704.75" cy="3161.06" rx="67.33" ry="21.6"/>
  <circle class="fil0" transform="matrix(0.0401263 -0.0276381 0.00886704 0.0128735 4674.95 3204.26)" r="1381.95"/>
  <ellipse class="fil0" cx="11297.84" cy="6541.61" rx="67.33" ry="21.6"/>
  <ellipse class="fil0" cx="22878.18" cy="8589.38" rx="67.33" ry="21.6"/>
  <circle class="fil0" transform="matrix(0.00945121 -0.00650983 0.00208851 0.0030322 23501.4 5932.26)" r="1381.95"/>
  <circle class="fil0" cx="23990.82" cy="11714.5" r="45.37"/>
  <ellipse class="fil0" cx="22847.47" cy="1203.81" rx="67.33" ry="21.6"/>
  <circle class="fil0" transform="matrix(0.0401263 -0.0276381 0.00886704 0.0128735 20281.8 10431.1)" r="1381.95"/>
  <circle class="fil0" transform="matrix(0.00945121 -0.00650983 0.00208851 0.0030322 22831.5 657.001)" r="1381.95"/>
  <circle class="fil0" cx="11727.7" cy="17235.63" r="45.37"/>
  <ellipse class="fil0" cx="23241.5" cy="17001.13" rx="67.33" ry="21.6"/>
  <circle class="fil0" transform="matrix(0.0401263 -0.0276381 0.00886704 0.0128735 11984.2 16603.8)" r="1381.95"/>
  <circle class="fil0" transform="matrix(0.00945121 -0.00650983 0.00208851 0.0030322 22594.9 17422.4)" r="1381.95"/>
  <ellipse class="fil0" cx="22611" cy="14803.4" rx="67.33" ry="21.6"/>
  <circle class="fil0" cx="24010.15" cy="4287.03" r="45.37"/>
  <circle class="fil0" cx="10864.71" cy="4734.26" r="45.37"/>
  <ellipse class="fil0" cx="10208.91" cy="5027.38" rx="67.33" ry="21.6"/>
  <circle class="fil0" transform="matrix(-0.0401263 -0.0276381 -0.00886704 0.0128735 10608.2 4102.46)" r="1381.95"/>
  <circle class="fil0" transform="matrix(-0.00945121 -0.00650983 -0.00208851 0.0030322 10225 4480.57)" r="1381.95"/>
  <circle class="fil0" cx="6783.09" cy="9649.94" r="45.37"/>
  <circle class="fil0" transform="matrix(-0.0401263 -0.0276381 -0.00886704 0.0128735 6526.57 9018.16)" r="1381.95"/>
  <ellipse class="fil0" cx="12749.75" cy="15106.71" rx="67.33" ry="21.6"/>
  <circle class="fil0" transform="matrix(0.0401263 -0.0276381 0.00886704 0.0128735 11720 15149.9)" r="1381.95"/>
  <ellipse class="fil0" cx="11061.03" cy="6754.32" rx="67.33" ry="21.6"/>
  <circle class="fil0" transform="matrix(0.0401263 -0.0276381 0.00886704 0.0128735 10031.3 6797.53)" r="1381.95"/>
  <ellipse class="fil0" cx="26242.43" cy="12685.68" rx="67.33" ry="21.6"/>
  <ellipse class="fil0" cx="28234.47" cy="12182.65" rx="67.33" ry="21.6"/>
  <circle class="fil0" transform="matrix(0.00945121 -0.00650983 0.00208851 0.0030322 28218.4 11635.8)" r="1381.95"/>
  <circle class="fil0" cx="27547.95" cy="4503.96" r="45.37"/>
  <ellipse class="fil0" cx="28203.76" cy="4797.08" rx="67.33" ry="21.6"/>
  <circle class="fil0" transform="matrix(0.0401263 -0.0276381 0.00886704 0.0128735 27804.5 3872.16)" r="1381.95"/>
  <circle class="fil0" transform="matrix(0.00945121 -0.00650983 0.00208851 0.0030322 28187.7 4250.27)" r="1381.95"/>
  <circle class="fil0" cx="2896.64" cy="6205.15" r="45.37"/>
  <ellipse class="fil0" cx="1610.33" cy="6880.14" rx="67.33" ry="21.6"/>
  <circle class="fil0" transform="matrix(-0.0401263 0.0276381 -0.00886704 -0.0128735 2640.11 6836.94)" r="1381.95"/>
  <circle class="fil0" transform="matrix(-0.00945121 0.00650983 -0.00208851 -0.0030322 2256.89 6458.83)" r="1381.95"/>
  <ellipse class="fil0" cx="2240.83" cy="9077.86" rx="67.33" ry="21.6"/>
  <circle class="fil0" cx="569.72" cy="748.55" r="45.37"/>
  <circle class="fil0" cx="5926.01" cy="8554.32" r="45.37"/>
  <ellipse class="fil0" cx="6581.81" cy="8261.21" rx="67.33" ry="21.6"/>
  <circle class="fil0" transform="matrix(0.0401263 0.0276381 0.00886704 -0.0128735 6182.52 9186.12)" r="1381.95"/>
  <circle class="fil0" transform="matrix(0.00945121 0.00650983 0.00208851 -0.0030322 6565.78 8808.01)" r="1381.95"/>
  <circle class="fil0" cx="10007.64" cy="3638.64" r="45.37"/>
  <circle class="fil0" transform="matrix(0.0401263 0.0276381 0.00886704 -0.0128735 10264.1 4270.43)" r="1381.95"/>
  <ellipse class="fil0" cx="3401.79" cy="292.18" rx="67.33" ry="21.6"/>
  <circle class="fil0" transform="matrix(-0.0401263 0.0276381 -0.00886704 -0.0128735 4431.59 248.969)" r="1381.95"/>
  <ellipse class="fil0" cx="5729.68" cy="6534.26" rx="67.33" ry="21.6"/>
  <circle class="fil0" transform="matrix(-0.0401263 0.0276381 -0.00886704 -0.0128735 6759.48 6491.05)" r="1381.95"/>
  <ellipse class="fil0" cx="136.59" cy="3153.71" rx="67.33" ry="21.6"/>
  <circle class="fil0" cx="569.72" cy="4961.06" r="45.37"/>
  <ellipse class="fil0" cx="1225.53" cy="4667.94" rx="67.33" ry="21.6"/>
  <circle class="fil0" transform="matrix(0.0401263 0.0276381 0.00886704 -0.0128735 826.262 5592.85)" r="1381.95"/>
  <circle class="fil0" transform="matrix(0.00945121 0.00650983 0.00208851 -0.0030322 1209.48 5214.75)" r="1381.95"/>
  <circle class="fil0" cx="4651.35" cy="45.37" r="45.37"/>
  <circle class="fil0" transform="matrix(0.0401263 0.0276381 0.00886704 -0.0128735 4907.86 677.157)" r="1381.95"/>
  <ellipse class="fil0" cx="373.41" cy="2940.99" rx="67.33" ry="21.6"/>
  <circle class="fil0" transform="matrix(-0.0401263 0.0276381 -0.00886704 -0.0128735 1403.17 2897.78)" r="1381.95"/>
  <ellipse class="fil0" cx="2370.29" cy="17387.04" rx="67.33" ry="21.6"/>
  <circle class="fil0" transform="matrix(0.0401263 -0.0276381 0.00886704 0.0128735 1340.49 17430.2)" r="1381.95"/>
  <circle class="fil0" cx="1120.73" cy="17633.85" r="45.37"/>
  <circle class="fil0" transform="matrix(-0.0401263 -0.0276381 -0.00886704 0.0128735 864.218 17002.1)" r="1381.95"/>
  <circle class="fil0" cx="263.66" cy="16538.23" r="45.37"/>
  <ellipse class="fil0" cx="919.46" cy="16245.11" rx="67.33" ry="21.6"/>
  <circle class="fil0" transform="matrix(0.0401263 0.0276381 0.00886704 -0.0128735 520.164 17170)" r="1381.95"/>
  <circle class="fil0" transform="matrix(0.00945121 0.00650983 0.00208851 -0.0030322 903.425 16791.9)" r="1381.95"/>
  <ellipse class="fil0" cx="67.33" cy="14518.16" rx="67.33" ry="21.6"/>
  <circle class="fil0" transform="matrix(-0.0401263 0.0276381 -0.00886704 -0.0128735 1097.13 14475)" r="1381.95"/>
 </g>
</svg>
